<svg xmlns="http://www.w3.org/2000/svg" width="989" height="503" fill="none" viewBox="0 0 989 503"><g clip-path="url(#clip0_14_4)"><rect width="682" height="88" x="296" y="47" fill="currentColor" fill-opacity=".03" rx="8"/><rect width="64" height="64" x="309" y="59" fill="currentColor" fill-opacity=".32" rx="4"/><rect width="190" height="22" x="385" y="59" fill="currentColor" fill-opacity=".24" rx="11"/><rect width="436" height="11" x="385" y="96" fill="currentColor" fill-opacity=".12" rx="5.5"/><rect width="436" height="11" x="385" y="112" fill="currentColor" fill-opacity=".12" rx="5.5"/><rect width="682" height="88" x="296" y="148" fill="currentColor" fill-opacity=".03" rx="8"/><rect width="64" height="64" x="309" y="160" fill="currentColor" fill-opacity=".32" rx="4"/><rect width="190" height="22" x="385" y="160" fill="currentColor" fill-opacity=".24" rx="11"/><rect width="436" height="11" x="385" y="197" fill="currentColor" fill-opacity=".12" rx="5.5"/><rect width="436" height="11" x="385" y="213" fill="currentColor" fill-opacity=".12" rx="5.5"/><rect width="682" height="88" x="296" y="249" fill="currentColor" fill-opacity=".03" rx="8"/><rect width="64" height="64" x="309" y="261" fill="currentColor" fill-opacity=".32" rx="4"/><rect width="190" height="22" x="385" y="261" fill="currentColor" fill-opacity=".24" rx="11"/><rect width="436" height="11" x="385" y="298" fill="currentColor" fill-opacity=".12" rx="5.5"/><rect width="436" height="11" x="385" y="314" fill="currentColor" fill-opacity=".12" rx="5.5"/><rect width="682" height="88" x="296" y="350" fill="currentColor" fill-opacity=".03" rx="8"/><rect width="64" height="64" x="309" y="362" fill="currentColor" fill-opacity=".32" rx="4"/><rect width="190" height="22" x="385" y="362" fill="currentColor" fill-opacity=".24" rx="11"/><rect width="436" height="11" x="385" y="399" fill="currentColor" fill-opacity=".12" rx="5.5"/><rect width="436" height="11" x="385" y="415" fill="currentColor" fill-opacity=".12" rx="5.5"/><rect width="682" height="88" x="296" y="451" fill="currentColor" fill-opacity=".03" rx="8"/><rect width="64" height="64" x="309" y="463" fill="currentColor" fill-opacity=".32" rx="4"/><rect width="190" height="22" x="385" y="463" fill="currentColor" fill-opacity=".24" rx="11"/><rect width="436" height="11" x="385" y="500" fill="currentColor" fill-opacity=".12" rx="5.5"/><rect width="272" height="25" x="296" y="10" fill="currentColor" fill-opacity=".18" rx="4"/><rect width="44" height="44" x="10" y="451" fill="currentColor" fill-opacity=".12" rx="9"/><rect width="44" height="334" x="10" y="89" fill="currentColor" fill-opacity=".12" rx="9"/><rect width="41" height="7" x="11" y="59" fill="currentColor" fill-opacity=".18" rx="3.5"/><rect width="189" height="106" x="76" y="26" fill="currentColor" fill-opacity=".32" rx="15"/><rect width="146" height="11" x="98" y="10" fill="currentColor" fill-opacity=".12" rx="5.5"/><rect width="150" height="11" x="76" y="150" fill="currentColor" fill-opacity=".12" rx="5.5"/><rect width="183" height="24" x="76" y="167" fill="currentColor" fill-opacity=".18" rx="4"/><rect width="114" height="11" x="76" y="202" fill="currentColor" fill-opacity=".12" rx="5.5"/><rect width="183" height="24" x="76" y="219" fill="currentColor" fill-opacity=".18" rx="4"/><rect width="80" height="11" x="76" y="254" fill="currentColor" fill-opacity=".12" rx="5.5"/><rect width="183" height="24" x="76" y="271" fill="currentColor" fill-opacity=".18" rx="4"/><rect width="16" height="16" x="77" y="308" fill-opacity="0" stroke="currentColor" stroke-opacity=".18" stroke-width="2" rx="2"/><rect width="16" height="16" x="77" y="334" fill-opacity="0" stroke="currentColor" stroke-opacity=".18" stroke-width="2" rx="2"/><rect width="16" height="16" x="77" y="360" fill-opacity="0" stroke="currentColor" stroke-opacity=".18" stroke-width="2" rx="2"/><rect width="16" height="16" x="77" y="386" fill-opacity="0" stroke="currentColor" stroke-opacity=".18" stroke-width="2" rx="2"/><rect width="133" height="10" x="98" y="389" fill="currentColor" fill-opacity=".12" rx="5"/><rect width="158" height="10" x="98" y="363" fill="currentColor" fill-opacity=".12" rx="5"/><rect width="166" height="10" x="98" y="337" fill="currentColor" fill-opacity=".12" rx="5"/><rect width="154" height="10" x="98" y="311" fill="currentColor" fill-opacity=".12" rx="5"/><rect width="148" height="28" x="96" y="416" fill="currentColor" fill-opacity=".12" rx="8"/><rect width="148" height="28" x="96" y="450" fill="currentColor" fill-opacity=".12" rx="8"/><rect width="44" height="44" x="10" y="10" fill="currentColor" fill-opacity=".32" rx="9"/></g><defs><clipPath id="clip0_14_4"><rect width="989" height="503" fill="currentColor"/></clipPath></defs></svg>