<svg xmlns="http://www.w3.org/2000/svg" width="1000" height="1000" fill="none" viewBox="0 0 1000 1000"><g filter="url(#filter0_d_2095_60)"><rect width="100" height="100" x="150" y="450" fill="#E0EDFF"/></g><rect width="25" height="100" x="150" y="450" fill="#677189"/><rect width="100" height="25" x="150" y="525" fill="#677189"/><rect width="10" height="10" x="165" y="525" fill="#576074"/><rect width="10" height="10" x="210" y="540" fill="#596077"/><rect width="10" height="10" x="240" y="525" fill="#7C87A3"/><rect width="10" height="10" x="230" y="525" fill="#576073"/><rect width="10" height="10" x="165" y="515" fill="#7C87A2"/><rect width="10" height="10" x="175" y="525" fill="#7C87A2"/><rect width="10" height="10" x="165" y="495" fill="#7C87A2"/><rect width="25" height="10" x="150" y="495" fill="#576074"/><rect width="10" height="10" x="165" y="485" fill="#7B869E"/><rect width="10" height="10" x="165" y="450" fill="#576074"/><rect width="55" height="10" x="185" y="515" fill="#B6C2DC"/><rect width="10" height="30" x="185" y="485" fill="#B6C2DC"/><rect width="10" height="30" x="205" y="473" fill="#B6C2DC"/><rect width="10" height="10" x="215" y="493" fill="#B6C2DC"/><rect width="10" height="10" x="175" y="505" fill="#B6C2DC"/><rect width="10" height="10" x="185" y="450" fill="#97A0B4"/><rect width="10" height="10" x="240" y="505" fill="#97A0B4"/><rect width="10" height="20" x="195" y="495" fill="#97A0B4"/><rect width="10" height="20" x="215" y="473" fill="#97A0B4"/><defs><filter id="filter0_d_2095_60" width="261.6" height="261.6" x="69.2" y="369.2" color-interpolation-filters="sRGB" filterUnits="userSpaceOnUse"><feFlood flood-opacity="0" result="BackgroundImageFix"/><feColorMatrix in="SourceAlpha" result="hardAlpha" type="matrix" values="0 0 0 0 0 0 0 0 0 0 0 0 0 0 0 0 0 0 127 0"/><feMorphology in="SourceAlpha" operator="dilate" radius="10" result="effect1_dropShadow_2095_60"/><feOffset/><feGaussianBlur stdDeviation="35.4"/><feComposite in2="hardAlpha" operator="out"/><feColorMatrix type="matrix" values="0 0 0 0 0.878431 0 0 0 0 0.929412 0 0 0 0 1 0 0 0 0.34 0"/><feBlend in2="BackgroundImageFix" mode="normal" result="effect1_dropShadow_2095_60"/><feBlend in="SourceGraphic" in2="effect1_dropShadow_2095_60" mode="normal" result="shape"/></filter></defs></svg>