<svg width="8" height="8" viewBox="0 0 8 8" fill="none" xmlns="http://www.w3.org/2000/svg">
<g clip-path="url(#clip0_2027_74)">
<rect x="4" y="7" width="1" height="1" fill="#253239"/>
<rect x="3" y="6" width="1" height="1" fill="#253239"/>
<rect x="4" y="6" width="1" height="1" fill="#253239"/>
<rect x="5" y="6" width="1" height="1" fill="#253239"/>
<rect x="6" y="5" width="1" height="1" fill="#253239"/>
<rect x="5" y="5" width="1" height="1" fill="#253239"/>
<rect x="4" y="5" width="1" height="1" fill="#253239"/>
<rect x="2" y="5" width="1" height="1" fill="#253239"/>
<rect x="3" y="5" width="1" height="1" fill="#253239"/>
<rect x="1" y="4" width="1" height="1" fill="#253239"/>
<rect x="1" y="3" width="1" height="1" fill="#253239"/>
<rect x="1" y="2" width="1" height="1" fill="#253239"/>
<rect x="2" y="1" width="1" height="1" fill="#253239"/>
<rect x="3" y="1" width="1" height="1" fill="#253239"/>
<rect x="2" y="2" width="3" height="1" fill="#253239"/>
<rect x="5" y="1" width="1" height="1" fill="#253239"/>
<rect x="6" y="1" width="1" height="1" fill="#253239"/>
<rect x="7" y="2" width="1" height="1" fill="#253239"/>
<rect x="7" y="3" width="1" height="1" fill="#253239"/>
<rect x="7" y="4" width="1" height="1" fill="#253239"/>
<rect x="2" y="3" width="5" height="2" fill="#253239"/>
<rect x="6" y="3" width="1" height="1" fill="#253239"/>
<rect x="5" y="2" width="2" height="1" fill="#253239"/>
<rect x="3" y="6" width="1" height="1" fill="#ABD5E3"/>
<rect x="2" y="5" width="1" height="1" fill="#ABD5E3"/>
<rect x="3" y="5" width="1" height="1" fill="#ABD5E3"/>
<rect x="4" y="5" width="1" height="1" fill="#ABD5E3"/>
<rect x="5" y="4" width="1" height="1" fill="#ABD5E3"/>
<rect x="4" y="4" width="1" height="1" fill="#ABD5E3"/>
<rect x="3" y="4" width="1" height="1" fill="#ABD5E3"/>
<rect x="1" y="4" width="1" height="1" fill="#ABD5E3"/>
<rect x="2" y="4" width="1" height="1" fill="#ABD5E3"/>
<rect y="3" width="1" height="1" fill="#ABD5E3"/>
<rect y="2" width="1" height="1" fill="#ABD5E3"/>
<rect y="1" width="1" height="1" fill="#ABD5E3"/>
<rect x="1" width="1" height="1" fill="#ABD5E3"/>
<rect x="2" width="1" height="1" fill="#ABD5E3"/>
<rect x="1" y="1" width="3" height="1" fill="#ABD5E3"/>
<rect x="4" width="1" height="1" fill="#ABD5E3"/>
<rect x="5" width="1" height="1" fill="#ABD5E3"/>
<rect x="6" y="1" width="1" height="1" fill="#ABD5E3"/>
<rect x="6" y="2" width="1" height="1" fill="#ABD5E3"/>
<rect x="6" y="3" width="1" height="1" fill="#ABD5E3"/>
<rect x="1" y="2" width="5" height="2" fill="#ABD5E3"/>
<rect x="5" y="2" width="1" height="1" fill="#ABD5E3"/>
<rect x="4" y="1" width="2" height="1" fill="#ABD5E3"/>
</g>
<defs>
<clipPath id="clip0_2027_74">
<rect width="8" height="8" fill="white"/>
</clipPath>
</defs>
</svg>
