<svg width="1000" height="1000" viewBox="0 0 1000 1000" fill="none" xmlns="http://www.w3.org/2000/svg">
<g clip-path="url(#clip0_2092_69)">
<rect y="500" width="1000" height="500" fill="#121825"/>
<rect width="1000" height="500" fill="#7BA6FE"/>
<g filter="url(#filter0_f_2092_69)">
<rect x="-278" y="405" width="1543" height="233" fill="url(#paint0_linear_2092_69)"/>
</g>
<rect x="345" y="961" width="8" height="8" fill="white" fill-opacity="0.12"/>
<rect x="440" y="877" width="10" height="10" fill="white" fill-opacity="0.12"/>
<rect x="340" y="849" width="9" height="9" fill="white" fill-opacity="0.12"/>
<rect x="391" y="818" width="13" height="13" fill="white" fill-opacity="0.12"/>
<rect x="508" y="945" width="6" height="6" fill="white" fill-opacity="0.12"/>
<rect x="592" y="879" width="8" height="8" fill="white" fill-opacity="0.12"/>
<rect x="687" y="795" width="10" height="10" fill="white" fill-opacity="0.12"/>
<rect x="587" y="767" width="9" height="9" fill="white" fill-opacity="0.12"/>
<rect x="638" y="736" width="13" height="13" fill="white" fill-opacity="0.12"/>
<rect x="755" y="863" width="6" height="6" fill="white" fill-opacity="0.12"/>
<rect x="966.407" y="820.928" width="8" height="8" transform="rotate(42.5201 966.407 820.928)" fill="white" fill-opacity="0.12"/>
<rect x="227.234" y="738.603" width="8" height="8" transform="rotate(134.461 227.234 738.603)" fill="white" fill-opacity="0.12"/>
<rect x="220.647" y="865.243" width="10" height="10" transform="rotate(134.461 220.647 865.243)" fill="white" fill-opacity="0.12"/>
<rect x="310.674" y="813.482" width="9" height="9" transform="rotate(134.461 310.674 813.482)" fill="white" fill-opacity="0.12"/>
<rect x="297.078" y="871.595" width="13" height="13" transform="rotate(134.461 297.078 871.595)" fill="white" fill-opacity="0.12"/>
<rect x="124.485" y="866.148" width="6" height="6" transform="rotate(134.461 124.485 866.148)" fill="white" fill-opacity="0.12"/>
<rect x="791.878" y="750.362" width="8" height="8" transform="rotate(80.0058 791.878 750.362)" fill="white" fill-opacity="0.12"/>
<rect x="891.091" y="829.342" width="10" height="10" transform="rotate(80.0058 891.091 829.342)" fill="white" fill-opacity="0.12"/>
<rect x="901.311" y="726" width="9" height="9" transform="rotate(80.0058 901.311 726)" fill="white" fill-opacity="0.12"/>
<rect x="940.691" y="770.846" width="13" height="13" transform="rotate(80.0058 940.691 770.846)" fill="white" fill-opacity="0.12"/>
<rect x="835.924" y="908.111" width="6" height="6" transform="rotate(80.0058 835.924 908.111)" fill="white" fill-opacity="0.12"/>
<rect x="23" y="903" width="8" height="8" fill="white" fill-opacity="0.12"/>
<rect x="118" y="819" width="10" height="10" fill="white" fill-opacity="0.12"/>
<rect x="18" y="791" width="9" height="9" fill="white" fill-opacity="0.12"/>
<rect x="69" y="760" width="13" height="13" fill="white" fill-opacity="0.12"/>
<rect x="186" y="887" width="6" height="6" fill="white" fill-opacity="0.12"/>
<rect x="29" y="853" width="6" height="6" fill="white" fill-opacity="0.12"/>
<rect x="416" y="915" width="8" height="8" fill="white" fill-opacity="0.12"/>
<rect x="511" y="831" width="10" height="10" fill="white" fill-opacity="0.12"/>
<rect x="411" y="803" width="9" height="9" fill="white" fill-opacity="0.12"/>
<rect x="462" y="772" width="13" height="13" fill="white" fill-opacity="0.12"/>
<rect x="579" y="899" width="6" height="6" fill="white" fill-opacity="0.12"/>
<rect x="663" y="992" width="8" height="8" fill="white" fill-opacity="0.12"/>
<rect x="758" y="908" width="10" height="10" fill="white" fill-opacity="0.12"/>
<rect x="658" y="880" width="9" height="9" fill="white" fill-opacity="0.12"/>
<rect x="709" y="849" width="13" height="13" fill="white" fill-opacity="0.12"/>
<rect x="826" y="976" width="6" height="6" fill="white" fill-opacity="0.12"/>
<rect x="403" y="775" width="8" height="8" fill="white" fill-opacity="0.12"/>
<rect x="498" y="691" width="10" height="10" fill="white" fill-opacity="0.12"/>
<rect x="398" y="663" width="9" height="9" fill="white" fill-opacity="0.12"/>
<rect x="449" y="632" width="13" height="13" fill="white" fill-opacity="0.12"/>
<rect x="566" y="759" width="6" height="6" fill="white" fill-opacity="0.12"/>
<rect x="650" y="693" width="8" height="8" fill="white" fill-opacity="0.12"/>
<rect x="745" y="609" width="10" height="10" fill="white" fill-opacity="0.12"/>
<rect x="645" y="581" width="9" height="9" fill="white" fill-opacity="0.12"/>
<rect x="696" y="550" width="13" height="13" fill="white" fill-opacity="0.12"/>
<rect x="813" y="677" width="6" height="6" fill="white" fill-opacity="0.12"/>
<rect x="285.234" y="552.604" width="8" height="8" transform="rotate(134.461 285.234 552.604)" fill="white" fill-opacity="0.12"/>
<rect x="278.647" y="679.243" width="10" height="10" transform="rotate(134.461 278.647 679.243)" fill="white" fill-opacity="0.12"/>
<rect x="368.674" y="627.482" width="9" height="9" transform="rotate(134.461 368.674 627.482)" fill="white" fill-opacity="0.12"/>
<rect x="355.078" y="685.595" width="13" height="13" transform="rotate(134.461 355.078 685.595)" fill="white" fill-opacity="0.12"/>
<rect x="182.485" y="680.148" width="6" height="6" transform="rotate(134.461 182.485 680.148)" fill="white" fill-opacity="0.12"/>
<rect x="849.878" y="564.361" width="8" height="8" transform="rotate(80.0058 849.878 564.361)" fill="white" fill-opacity="0.12"/>
<rect x="949.091" y="643.342" width="10" height="10" transform="rotate(80.0058 949.091 643.342)" fill="white" fill-opacity="0.12"/>
<rect x="959.311" y="540" width="9" height="9" transform="rotate(80.0058 959.311 540)" fill="white" fill-opacity="0.12"/>
<rect x="998.691" y="584.846" width="13" height="13" transform="rotate(80.0058 998.691 584.846)" fill="white" fill-opacity="0.12"/>
<rect x="893.924" y="722.111" width="6" height="6" transform="rotate(80.0058 893.924 722.111)" fill="white" fill-opacity="0.12"/>
<rect x="81" y="717" width="8" height="8" fill="white" fill-opacity="0.12"/>
<rect x="176" y="633" width="10" height="10" fill="white" fill-opacity="0.12"/>
<rect x="76" y="605" width="9" height="9" fill="white" fill-opacity="0.12"/>
<rect x="127" y="574" width="13" height="13" fill="white" fill-opacity="0.12"/>
<rect x="244" y="701" width="6" height="6" fill="white" fill-opacity="0.12"/>
<rect x="19" y="599" width="10" height="10" fill="white" fill-opacity="0.12"/>
<rect x="87" y="667" width="6" height="6" fill="white" fill-opacity="0.12"/>
<rect x="474" y="729" width="8" height="8" fill="white" fill-opacity="0.12"/>
<rect x="569" y="645" width="10" height="10" fill="white" fill-opacity="0.12"/>
<rect x="469" y="617" width="9" height="9" fill="white" fill-opacity="0.12"/>
<rect x="520" y="586" width="13" height="13" fill="white" fill-opacity="0.12"/>
<rect x="637" y="713" width="6" height="6" fill="white" fill-opacity="0.12"/>
<rect x="721" y="806" width="8" height="8" fill="white" fill-opacity="0.12"/>
<rect x="816" y="722" width="10" height="10" fill="white" fill-opacity="0.12"/>
<rect x="716" y="694" width="9" height="9" fill="white" fill-opacity="0.12"/>
<rect x="767" y="663" width="13" height="13" fill="white" fill-opacity="0.12"/>
<rect x="884" y="790" width="6" height="6" fill="white" fill-opacity="0.12"/>
<rect x="125" y="49" width="158" height="48" fill="white" fill-opacity="0.24"/>
<rect x="95" y="25" width="79" height="48" fill="white" fill-opacity="0.24"/>
<rect x="428" y="97" width="138" height="49" fill="white" fill-opacity="0.24"/>
<rect x="409" y="117" width="138" height="49" fill="white" fill-opacity="0.24"/>
<rect x="601" y="34" width="247" height="29" fill="white" fill-opacity="0.24"/>
<rect x="764" y="51" width="124" height="31" fill="white" fill-opacity="0.24"/>
<rect x="18" y="166" width="213" height="61" fill="white" fill-opacity="0.24"/>
<rect x="66" y="186" width="213" height="61" fill="white" fill-opacity="0.24"/>
<rect x="793" y="163" width="110" height="27" fill="white" fill-opacity="0.24"/>
<rect x="785" y="152" width="110" height="27" fill="white" fill-opacity="0.24"/>
</g>
<defs>
<filter id="filter0_f_2092_69" x="-345" y="338" width="1677" height="367" filterUnits="userSpaceOnUse" color-interpolation-filters="sRGB">
<feFlood flood-opacity="0" result="BackgroundImageFix"/>
<feBlend mode="normal" in="SourceGraphic" in2="BackgroundImageFix" result="shape"/>
<feGaussianBlur stdDeviation="33.5" result="effect1_foregroundBlur_2092_69"/>
</filter>
<linearGradient id="paint0_linear_2092_69" x1="470.18" y1="405" x2="468.135" y2="637.992" gradientUnits="userSpaceOnUse">
<stop stop-color="#FBDAA4"/>
<stop offset="1" stop-color="#A54722"/>
</linearGradient>
<clipPath id="clip0_2092_69">
<rect width="1000" height="1000" fill="white"/>
</clipPath>
</defs>
</svg>
