<svg xmlns="http://www.w3.org/2000/svg" width="1000" height="1000" fill="none" viewBox="0 0 1000 1000"><g clip-path="url(#clip0_2092_69)"><rect width="1000" height="500" y="500" fill="#121825"/><rect width="1000" height="500" fill="#7BA6FE"/><g filter="url(#filter0_f_2092_69)"><rect width="1543" height="233" x="-278" y="405" fill="url(#paint0_linear_2092_69)"/></g><rect width="8" height="8" x="345" y="961" fill="#fff" fill-opacity=".12"/><rect width="10" height="10" x="440" y="877" fill="#fff" fill-opacity=".12"/><rect width="9" height="9" x="340" y="849" fill="#fff" fill-opacity=".12"/><rect width="13" height="13" x="391" y="818" fill="#fff" fill-opacity=".12"/><rect width="6" height="6" x="508" y="945" fill="#fff" fill-opacity=".12"/><rect width="8" height="8" x="592" y="879" fill="#fff" fill-opacity=".12"/><rect width="10" height="10" x="687" y="795" fill="#fff" fill-opacity=".12"/><rect width="9" height="9" x="587" y="767" fill="#fff" fill-opacity=".12"/><rect width="13" height="13" x="638" y="736" fill="#fff" fill-opacity=".12"/><rect width="6" height="6" x="755" y="863" fill="#fff" fill-opacity=".12"/><rect width="8" height="8" x="966.407" y="820.928" fill="#fff" fill-opacity=".12" transform="rotate(42.5201 966.407 820.928)"/><rect width="8" height="8" x="227.234" y="738.603" fill="#fff" fill-opacity=".12" transform="rotate(134.461 227.234 738.603)"/><rect width="10" height="10" x="220.647" y="865.243" fill="#fff" fill-opacity=".12" transform="rotate(134.461 220.647 865.243)"/><rect width="9" height="9" x="310.674" y="813.482" fill="#fff" fill-opacity=".12" transform="rotate(134.461 310.674 813.482)"/><rect width="13" height="13" x="297.078" y="871.595" fill="#fff" fill-opacity=".12" transform="rotate(134.461 297.078 871.595)"/><rect width="6" height="6" x="124.485" y="866.148" fill="#fff" fill-opacity=".12" transform="rotate(134.461 124.485 866.148)"/><rect width="8" height="8" x="791.878" y="750.362" fill="#fff" fill-opacity=".12" transform="rotate(80.0058 791.878 750.362)"/><rect width="10" height="10" x="891.091" y="829.342" fill="#fff" fill-opacity=".12" transform="rotate(80.0058 891.091 829.342)"/><rect width="9" height="9" x="901.311" y="726" fill="#fff" fill-opacity=".12" transform="rotate(80.0058 901.311 726)"/><rect width="13" height="13" x="940.691" y="770.846" fill="#fff" fill-opacity=".12" transform="rotate(80.0058 940.691 770.846)"/><rect width="6" height="6" x="835.924" y="908.111" fill="#fff" fill-opacity=".12" transform="rotate(80.0058 835.924 908.111)"/><rect width="8" height="8" x="23" y="903" fill="#fff" fill-opacity=".12"/><rect width="10" height="10" x="118" y="819" fill="#fff" fill-opacity=".12"/><rect width="9" height="9" x="18" y="791" fill="#fff" fill-opacity=".12"/><rect width="13" height="13" x="69" y="760" fill="#fff" fill-opacity=".12"/><rect width="6" height="6" x="186" y="887" fill="#fff" fill-opacity=".12"/><rect width="6" height="6" x="29" y="853" fill="#fff" fill-opacity=".12"/><rect width="8" height="8" x="416" y="915" fill="#fff" fill-opacity=".12"/><rect width="10" height="10" x="511" y="831" fill="#fff" fill-opacity=".12"/><rect width="9" height="9" x="411" y="803" fill="#fff" fill-opacity=".12"/><rect width="13" height="13" x="462" y="772" fill="#fff" fill-opacity=".12"/><rect width="6" height="6" x="579" y="899" fill="#fff" fill-opacity=".12"/><rect width="8" height="8" x="663" y="992" fill="#fff" fill-opacity=".12"/><rect width="10" height="10" x="758" y="908" fill="#fff" fill-opacity=".12"/><rect width="9" height="9" x="658" y="880" fill="#fff" fill-opacity=".12"/><rect width="13" height="13" x="709" y="849" fill="#fff" fill-opacity=".12"/><rect width="6" height="6" x="826" y="976" fill="#fff" fill-opacity=".12"/><rect width="8" height="8" x="403" y="775" fill="#fff" fill-opacity=".12"/><rect width="10" height="10" x="498" y="691" fill="#fff" fill-opacity=".12"/><rect width="9" height="9" x="398" y="663" fill="#fff" fill-opacity=".12"/><rect width="13" height="13" x="449" y="632" fill="#fff" fill-opacity=".12"/><rect width="6" height="6" x="566" y="759" fill="#fff" fill-opacity=".12"/><rect width="8" height="8" x="650" y="693" fill="#fff" fill-opacity=".12"/><rect width="10" height="10" x="745" y="609" fill="#fff" fill-opacity=".12"/><rect width="9" height="9" x="645" y="581" fill="#fff" fill-opacity=".12"/><rect width="13" height="13" x="696" y="550" fill="#fff" fill-opacity=".12"/><rect width="6" height="6" x="813" y="677" fill="#fff" fill-opacity=".12"/><rect width="8" height="8" x="285.234" y="552.604" fill="#fff" fill-opacity=".12" transform="rotate(134.461 285.234 552.604)"/><rect width="10" height="10" x="278.647" y="679.243" fill="#fff" fill-opacity=".12" transform="rotate(134.461 278.647 679.243)"/><rect width="9" height="9" x="368.674" y="627.482" fill="#fff" fill-opacity=".12" transform="rotate(134.461 368.674 627.482)"/><rect width="13" height="13" x="355.078" y="685.595" fill="#fff" fill-opacity=".12" transform="rotate(134.461 355.078 685.595)"/><rect width="6" height="6" x="182.485" y="680.148" fill="#fff" fill-opacity=".12" transform="rotate(134.461 182.485 680.148)"/><rect width="8" height="8" x="849.878" y="564.361" fill="#fff" fill-opacity=".12" transform="rotate(80.0058 849.878 564.361)"/><rect width="10" height="10" x="949.091" y="643.342" fill="#fff" fill-opacity=".12" transform="rotate(80.0058 949.091 643.342)"/><rect width="9" height="9" x="959.311" y="540" fill="#fff" fill-opacity=".12" transform="rotate(80.0058 959.311 540)"/><rect width="13" height="13" x="998.691" y="584.846" fill="#fff" fill-opacity=".12" transform="rotate(80.0058 998.691 584.846)"/><rect width="6" height="6" x="893.924" y="722.111" fill="#fff" fill-opacity=".12" transform="rotate(80.0058 893.924 722.111)"/><rect width="8" height="8" x="81" y="717" fill="#fff" fill-opacity=".12"/><rect width="10" height="10" x="176" y="633" fill="#fff" fill-opacity=".12"/><rect width="9" height="9" x="76" y="605" fill="#fff" fill-opacity=".12"/><rect width="13" height="13" x="127" y="574" fill="#fff" fill-opacity=".12"/><rect width="6" height="6" x="244" y="701" fill="#fff" fill-opacity=".12"/><rect width="10" height="10" x="19" y="599" fill="#fff" fill-opacity=".12"/><rect width="6" height="6" x="87" y="667" fill="#fff" fill-opacity=".12"/><rect width="8" height="8" x="474" y="729" fill="#fff" fill-opacity=".12"/><rect width="10" height="10" x="569" y="645" fill="#fff" fill-opacity=".12"/><rect width="9" height="9" x="469" y="617" fill="#fff" fill-opacity=".12"/><rect width="13" height="13" x="520" y="586" fill="#fff" fill-opacity=".12"/><rect width="6" height="6" x="637" y="713" fill="#fff" fill-opacity=".12"/><rect width="8" height="8" x="721" y="806" fill="#fff" fill-opacity=".12"/><rect width="10" height="10" x="816" y="722" fill="#fff" fill-opacity=".12"/><rect width="9" height="9" x="716" y="694" fill="#fff" fill-opacity=".12"/><rect width="13" height="13" x="767" y="663" fill="#fff" fill-opacity=".12"/><rect width="6" height="6" x="884" y="790" fill="#fff" fill-opacity=".12"/><rect width="158" height="48" x="125" y="49" fill="#fff" fill-opacity=".24"/><rect width="79" height="48" x="95" y="25" fill="#fff" fill-opacity=".24"/><rect width="138" height="49" x="428" y="97" fill="#fff" fill-opacity=".24"/><rect width="138" height="49" x="409" y="117" fill="#fff" fill-opacity=".24"/><rect width="247" height="29" x="601" y="34" fill="#fff" fill-opacity=".24"/><rect width="124" height="31" x="764" y="51" fill="#fff" fill-opacity=".24"/><rect width="213" height="61" x="18" y="166" fill="#fff" fill-opacity=".24"/><rect width="213" height="61" x="66" y="186" fill="#fff" fill-opacity=".24"/><rect width="110" height="27" x="793" y="163" fill="#fff" fill-opacity=".24"/><rect width="110" height="27" x="785" y="152" fill="#fff" fill-opacity=".24"/></g><defs><filter id="filter0_f_2092_69" width="1677" height="367" x="-345" y="338" color-interpolation-filters="sRGB" filterUnits="userSpaceOnUse"><feFlood flood-opacity="0" result="BackgroundImageFix"/><feBlend in="SourceGraphic" in2="BackgroundImageFix" mode="normal" result="shape"/><feGaussianBlur result="effect1_foregroundBlur_2092_69" stdDeviation="33.5"/></filter><linearGradient id="paint0_linear_2092_69" x1="470.18" x2="468.135" y1="405" y2="637.992" gradientUnits="userSpaceOnUse"><stop stop-color="#FBDAA4"/><stop offset="1" stop-color="#A54722"/></linearGradient><clipPath id="clip0_2092_69"><rect width="1000" height="1000" fill="#fff"/></clipPath></defs></svg>