<svg width="1038" height="706" viewBox="0 0 1038 706" fill="none" xmlns="http://www.w3.org/2000/svg" xmlns:xlink="http://www.w3.org/1999/xlink">
<rect width="1038" height="706" fill="url(#pattern0_2083_449)" fill-opacity="0.2"/>
<defs>
<pattern id="pattern0_2083_449" patternUnits="userSpaceOnUse" patternTransform="matrix(257.535 0 0 257.536 0 0)" preserveAspectRatio="none" viewBox="0 0 257.535 257.536" width="1" height="1">
<g id="pattern0_2083_449_inner">
<path d="M22.3697 17.8958L8.39155 31.8739C8.09779 32.1678 7.74902 32.4009 7.36516 32.56C6.9813 32.7191 6.56987 32.801 6.15436 32.8011C5.31519 32.8012 4.51034 32.468 3.91686 31.8747C3.32338 31.2814 2.98989 30.4767 2.98975 29.6375C2.98961 28.7983 3.32283 27.9935 3.91611 27.4L17.8957 13.4219" stroke="currentColor" fill-opacity="0" stroke-width="2" stroke-linecap="round" stroke-linejoin="round"/>
<path d="M27.7993 21.5413L31.9692 17.233" stroke="currentColor" fill-opacity="0" stroke-width="2" stroke-linecap="round" stroke-linejoin="round"/>
<path d="M32.0633 17.1502L29.2089 14.2958C28.6496 13.7366 28.3352 12.978 28.335 12.187V11.674C28.3349 10.8831 28.0205 10.1245 27.4611 9.56531L24.99 7.0942C23.3125 5.41694 21.0375 4.47446 18.6653 4.47395H13.4219L15.2756 6.32766C16.9532 8.00557 17.8957 10.2811 17.8958 12.6538V14.9132L20.8785 17.8958H22.6263C23.4173 17.896 24.1758 18.2103 24.735 18.7697L27.5894 21.6241" fill="currentColor"/>
<path d="M32.0633 17.1502L29.2089 14.2958C28.6496 13.7366 28.3352 12.978 28.335 12.187V11.674C28.3349 10.8831 28.0205 10.1245 27.4611 9.56531L24.99 7.0942C23.3125 5.41694 21.0375 4.47446 18.6653 4.47395H13.4219L15.2756 6.32766C16.9532 8.00557 17.8957 10.2811 17.8958 12.6538V14.9132L20.8785 17.8958H22.6263C23.4173 17.896 24.1758 18.2103 24.735 18.7697L27.5894 21.6241" stroke="currentColor" fill-opacity="0" stroke-width="2" stroke-linecap="round" stroke-linejoin="round"/>
<path d="M74.1612 69.6874L60.1831 83.6656C59.8893 83.9594 59.5405 84.1926 59.1567 84.3516C58.7728 84.5107 58.3614 84.5926 57.9459 84.5927C57.1067 84.5928 56.3018 84.2596 55.7084 83.6663C55.1149 83.073 54.7814 82.2683 54.7813 81.4291C54.7811 80.5899 55.1143 79.7851 55.7076 79.1916L69.6872 65.2135" stroke="currentColor" fill-opacity="0" stroke-width="2" stroke-linecap="round" stroke-linejoin="round"/>
<path d="M79.5908 73.3329L83.7607 69.0246" stroke="currentColor" fill-opacity="0" stroke-width="2" stroke-linecap="round" stroke-linejoin="round"/>
<path d="M83.8548 68.9418L81.0005 66.0874C80.4411 65.5282 80.1267 64.7697 80.1265 63.9787V63.4657C80.1264 62.6747 79.812 61.9162 79.2526 61.3569L76.7815 58.8858C75.104 57.2086 72.8291 56.2661 70.4568 56.2656H65.2134L67.0671 58.1193C68.7447 59.7972 69.6872 62.0727 69.6873 64.4455V66.7048L72.67 69.6874H74.4178C75.2088 69.6876 75.9673 70.002 76.5265 70.5614L79.3809 73.4157" fill="currentColor"/>
<path d="M83.8548 68.9418L81.0005 66.0874C80.4411 65.5282 80.1267 64.7697 80.1265 63.9787V63.4657C80.1264 62.6747 79.812 61.9162 79.2526 61.3569L76.7815 58.8858C75.104 57.2086 72.8291 56.2661 70.4568 56.2656H65.2134L67.0671 58.1193C68.7447 59.7972 69.6872 62.0727 69.6873 64.4455V66.7048L72.67 69.6874H74.4178C75.2088 69.6876 75.9673 70.002 76.5265 70.5614L79.3809 73.4157" stroke="currentColor" fill-opacity="0" stroke-width="2" stroke-linecap="round" stroke-linejoin="round"/>
<path d="M125.953 121.479L111.975 135.457C111.681 135.751 111.332 135.984 110.948 136.143C110.564 136.302 110.153 136.384 109.737 136.384C108.898 136.384 108.093 136.051 107.5 135.458C106.906 134.865 106.573 134.06 106.573 133.221C106.573 132.382 106.906 131.577 107.499 130.983L121.479 117.005" stroke="currentColor" fill-opacity="0" stroke-width="2" stroke-linecap="round" stroke-linejoin="round"/>
<path d="M131.382 125.125L135.552 120.816" stroke="currentColor" fill-opacity="0" stroke-width="2" stroke-linecap="round" stroke-linejoin="round"/>
<path d="M135.646 120.733L132.792 117.879C132.233 117.32 131.918 116.561 131.918 115.77V115.257C131.918 114.466 131.604 113.708 131.044 113.149L128.573 110.677C126.895 109 124.621 108.058 122.248 108.057H117.005L118.859 109.911C120.536 111.589 121.479 113.864 121.479 116.237V118.496L124.461 121.479H126.209C127 121.479 127.759 121.794 128.318 122.353L131.172 125.207" fill="currentColor"/>
<path d="M135.646 120.733L132.792 117.879C132.233 117.32 131.918 116.561 131.918 115.77V115.257C131.918 114.466 131.604 113.708 131.044 113.149L128.573 110.677C126.895 109 124.621 108.058 122.248 108.057H117.005L118.859 109.911C120.536 111.589 121.479 113.864 121.479 116.237V118.496L124.461 121.479H126.209C127 121.479 127.759 121.794 128.318 122.353L131.172 125.207" stroke="currentColor" fill-opacity="0" stroke-width="2" stroke-linecap="round" stroke-linejoin="round"/>
<path d="M177.744 173.271L163.766 187.249C163.472 187.543 163.124 187.776 162.74 187.935C162.356 188.094 161.944 188.176 161.529 188.176C160.69 188.176 159.885 187.843 159.291 187.25C158.698 186.656 158.364 185.852 158.364 185.012C158.364 184.173 158.697 183.368 159.291 182.775L173.27 168.797" stroke="currentColor" fill-opacity="0" stroke-width="2" stroke-linecap="round" stroke-linejoin="round"/>
<path d="M183.174 176.916L187.344 172.608" stroke="currentColor" fill-opacity="0" stroke-width="2" stroke-linecap="round" stroke-linejoin="round"/>
<path d="M187.438 172.525L184.583 169.671C184.024 169.111 183.71 168.353 183.71 167.562V167.049C183.709 166.258 183.395 165.499 182.836 164.94L180.365 162.469C178.687 160.792 176.412 159.849 174.04 159.849H168.796L170.65 161.703C172.328 163.38 173.27 165.656 173.27 168.029V170.288L176.253 173.271H178.001C178.792 173.271 179.55 173.585 180.11 174.145L182.964 176.999" fill="currentColor"/>
<path d="M187.438 172.525L184.583 169.671C184.024 169.111 183.71 168.353 183.71 167.562V167.049C183.709 166.258 183.395 165.499 182.836 164.94L180.365 162.469C178.687 160.792 176.412 159.849 174.04 159.849H168.796L170.65 161.703C172.328 163.38 173.27 165.656 173.27 168.029V170.288L176.253 173.271H178.001C178.792 173.271 179.55 173.585 180.11 174.145L182.964 176.999" stroke="currentColor" fill-opacity="0" stroke-width="2" stroke-linecap="round" stroke-linejoin="round"/>
<path d="M229.536 225.062L215.558 239.04C215.264 239.334 214.915 239.567 214.531 239.727C214.147 239.886 213.736 239.968 213.32 239.968C212.481 239.968 211.676 239.634 211.083 239.041C210.489 238.448 210.156 237.643 210.156 236.804C210.156 235.965 210.489 235.16 211.082 234.567L225.062 220.588" stroke="currentColor" fill-opacity="0" stroke-width="2" stroke-linecap="round" stroke-linejoin="round"/>
<path d="M234.965 228.708L239.135 224.4" stroke="currentColor" fill-opacity="0" stroke-width="2" stroke-linecap="round" stroke-linejoin="round"/>
<path d="M239.229 224.317L236.375 221.462C235.816 220.903 235.501 220.145 235.501 219.354V218.841C235.501 218.05 235.187 217.291 234.627 216.732L232.156 214.261C230.478 212.583 228.204 211.641 225.831 211.64H220.588L222.442 213.494C224.119 215.172 225.062 217.448 225.062 219.82V222.08L228.044 225.062H229.792C230.583 225.062 231.342 225.377 231.901 225.936L234.755 228.791" fill="currentColor"/>
<path d="M239.229 224.317L236.375 221.462C235.816 220.903 235.501 220.145 235.501 219.354V218.841C235.501 218.05 235.187 217.291 234.627 216.732L232.156 214.261C230.478 212.583 228.204 211.641 225.831 211.64H220.588L222.442 213.494C224.119 215.172 225.062 217.448 225.062 219.82V222.08L228.044 225.062H229.792C230.583 225.062 231.342 225.377 231.901 225.936L234.755 228.791" stroke="currentColor" fill-opacity="0" stroke-width="2" stroke-linecap="round" stroke-linejoin="round"/>
<path d="M183.71 4.47395H162.831C161.184 4.47395 159.849 5.80932 159.849 7.45659V28.335C159.849 29.9823 161.184 31.3177 162.831 31.3177H183.71C185.357 31.3177 186.692 29.9823 186.692 28.335V7.45659C186.692 5.80932 185.357 4.47395 183.71 4.47395Z" stroke="currentColor" fill-opacity="0" stroke-width="2" stroke-linecap="round" stroke-linejoin="round"/>
<path d="M173.271 13.4219V22.3698" stroke="currentColor" fill-opacity="0" stroke-width="2" stroke-linecap="round" stroke-linejoin="round"/>
<path d="M179.235 22.3698V31.3177" stroke="currentColor" fill-opacity="0" stroke-width="2" stroke-linecap="round" stroke-linejoin="round"/>
<path d="M179.235 4.47395V13.4219" stroke="currentColor" fill-opacity="0" stroke-width="2" stroke-linecap="round" stroke-linejoin="round"/>
<path d="M159.849 22.3698H186.692" stroke="currentColor" fill-opacity="0" stroke-width="2" stroke-linecap="round" stroke-linejoin="round"/>
<path d="M159.849 13.4219H186.692" stroke="currentColor" fill-opacity="0" stroke-width="2" stroke-linecap="round" stroke-linejoin="round"/>
<path d="M167.305 22.3698V31.3177" stroke="currentColor" fill-opacity="0" stroke-width="2" stroke-linecap="round" stroke-linejoin="round"/>
<path d="M167.305 4.47395V13.4219" stroke="currentColor" fill-opacity="0" stroke-width="2" stroke-linecap="round" stroke-linejoin="round"/>
<path d="M28.3352 108.057H7.45675C5.80949 108.057 4.47412 109.393 4.47412 111.04V131.918C4.47412 133.566 5.80949 134.901 7.45675 134.901H28.3352C29.9824 134.901 31.3178 133.566 31.3178 131.918V111.04C31.3178 109.393 29.9824 108.057 28.3352 108.057Z" stroke="currentColor" fill-opacity="0" stroke-width="2" stroke-linecap="round" stroke-linejoin="round"/>
<path d="M17.896 117.005V125.953" stroke="currentColor" fill-opacity="0" stroke-width="2" stroke-linecap="round" stroke-linejoin="round"/>
<path d="M23.8608 125.953V134.901" stroke="currentColor" fill-opacity="0" stroke-width="2" stroke-linecap="round" stroke-linejoin="round"/>
<path d="M23.8608 108.057V117.005" stroke="currentColor" fill-opacity="0" stroke-width="2" stroke-linecap="round" stroke-linejoin="round"/>
<path d="M4.47412 125.953H31.3178" stroke="currentColor" fill-opacity="0" stroke-width="2" stroke-linecap="round" stroke-linejoin="round"/>
<path d="M4.47412 117.005H31.3178" stroke="currentColor" fill-opacity="0" stroke-width="2" stroke-linecap="round" stroke-linejoin="round"/>
<path d="M11.9307 125.953V134.901" stroke="currentColor" fill-opacity="0" stroke-width="2" stroke-linecap="round" stroke-linejoin="round"/>
<path d="M11.9307 108.057V117.005" stroke="currentColor" fill-opacity="0" stroke-width="2" stroke-linecap="round" stroke-linejoin="round"/>
<path d="M80.1267 159.849H59.2483C57.601 159.849 56.2656 161.184 56.2656 162.831V183.71C56.2656 185.357 57.601 186.693 59.2483 186.693H80.1267C81.7739 186.693 83.1093 185.357 83.1093 183.71V162.831C83.1093 161.184 81.7739 159.849 80.1267 159.849Z" stroke="currentColor" fill-opacity="0" stroke-width="2" stroke-linecap="round" stroke-linejoin="round"/>
<path d="M69.6875 168.797V177.745" stroke="currentColor" fill-opacity="0" stroke-width="2" stroke-linecap="round" stroke-linejoin="round"/>
<path d="M75.6523 177.745V186.693" stroke="currentColor" fill-opacity="0" stroke-width="2" stroke-linecap="round" stroke-linejoin="round"/>
<path d="M75.6523 159.849V168.797" stroke="currentColor" fill-opacity="0" stroke-width="2" stroke-linecap="round" stroke-linejoin="round"/>
<path d="M56.2656 177.745H83.1093" stroke="currentColor" fill-opacity="0" stroke-width="2" stroke-linecap="round" stroke-linejoin="round"/>
<path d="M56.2656 168.797H83.1093" stroke="currentColor" fill-opacity="0" stroke-width="2" stroke-linecap="round" stroke-linejoin="round"/>
<path d="M63.7222 177.745V186.693" stroke="currentColor" fill-opacity="0" stroke-width="2" stroke-linecap="round" stroke-linejoin="round"/>
<path d="M63.7222 159.849V168.797" stroke="currentColor" fill-opacity="0" stroke-width="2" stroke-linecap="round" stroke-linejoin="round"/>
<path d="M131.918 211.64H111.04C109.392 211.64 108.057 212.976 108.057 214.623V235.502C108.057 237.149 109.392 238.484 111.04 238.484H131.918C133.565 238.484 134.901 237.149 134.901 235.502V214.623C134.901 212.976 133.565 211.64 131.918 211.64Z" stroke="currentColor" fill-opacity="0" stroke-width="2" stroke-linecap="round" stroke-linejoin="round"/>
<path d="M121.479 220.588V229.536" stroke="currentColor" fill-opacity="0" stroke-width="2" stroke-linecap="round" stroke-linejoin="round"/>
<path d="M127.444 229.536V238.484" stroke="currentColor" fill-opacity="0" stroke-width="2" stroke-linecap="round" stroke-linejoin="round"/>
<path d="M127.444 211.64V220.588" stroke="currentColor" fill-opacity="0" stroke-width="2" stroke-linecap="round" stroke-linejoin="round"/>
<path d="M108.057 229.536H134.901" stroke="currentColor" fill-opacity="0" stroke-width="2" stroke-linecap="round" stroke-linejoin="round"/>
<path d="M108.057 220.588H134.901" stroke="currentColor" fill-opacity="0" stroke-width="2" stroke-linecap="round" stroke-linejoin="round"/>
<path d="M115.514 229.536V238.484" stroke="currentColor" fill-opacity="0" stroke-width="2" stroke-linecap="round" stroke-linejoin="round"/>
<path d="M115.514 211.64V220.588" stroke="currentColor" fill-opacity="0" stroke-width="2" stroke-linecap="round" stroke-linejoin="round"/>
<path d="M235.501 56.2656H214.623C212.976 56.2656 211.64 57.601 211.64 59.2482V80.1267C211.64 81.7739 212.976 83.1093 214.623 83.1093H235.501C237.148 83.1093 238.484 81.7739 238.484 80.1267V59.2482C238.484 57.601 237.148 56.2656 235.501 56.2656Z" stroke="currentColor" fill-opacity="0" stroke-width="2" stroke-linecap="round" stroke-linejoin="round"/>
<path d="M225.062 65.2135V74.1614" stroke="currentColor" fill-opacity="0" stroke-width="2" stroke-linecap="round" stroke-linejoin="round"/>
<path d="M231.027 74.1614V83.1093" stroke="currentColor" fill-opacity="0" stroke-width="2" stroke-linecap="round" stroke-linejoin="round"/>
<path d="M231.027 56.2656V65.2135" stroke="currentColor" fill-opacity="0" stroke-width="2" stroke-linecap="round" stroke-linejoin="round"/>
<path d="M211.64 74.1614H238.484" stroke="currentColor" fill-opacity="0" stroke-width="2" stroke-linecap="round" stroke-linejoin="round"/>
<path d="M211.64 65.2135H238.484" stroke="currentColor" fill-opacity="0" stroke-width="2" stroke-linecap="round" stroke-linejoin="round"/>
<path d="M219.097 74.1614V83.1093" stroke="currentColor" fill-opacity="0" stroke-width="2" stroke-linecap="round" stroke-linejoin="round"/>
<path d="M219.097 56.2656V65.2135" stroke="currentColor" fill-opacity="0" stroke-width="2" stroke-linecap="round" stroke-linejoin="round"/>
<path d="M228.044 31.3177H229.536" stroke="currentColor" fill-opacity="0" stroke-width="2" stroke-linecap="round" stroke-linejoin="round"/>
<path d="M228.044 4.47395H229.536" stroke="currentColor" fill-opacity="0" stroke-width="2" stroke-linecap="round" stroke-linejoin="round"/>
<path d="M235.501 4.47395C236.292 4.47395 237.051 4.78819 237.61 5.34755C238.169 5.9069 238.484 6.66555 238.484 7.45659" stroke="currentColor" fill-opacity="0" stroke-width="2" stroke-linecap="round" stroke-linejoin="round"/>
<path d="M238.484 20.8784V22.3698" stroke="currentColor" fill-opacity="0" stroke-width="2" stroke-linecap="round" stroke-linejoin="round"/>
<path d="M238.484 28.335C238.484 29.1261 238.169 29.8847 237.61 30.4441C237.051 31.0034 236.292 31.3177 235.501 31.3177" stroke="currentColor" fill-opacity="0" stroke-width="2" stroke-linecap="round" stroke-linejoin="round"/>
<path d="M238.484 13.4219V14.9132" stroke="currentColor" fill-opacity="0" stroke-width="2" stroke-linecap="round" stroke-linejoin="round"/>
<path d="M211.64 20.8784V22.3698" stroke="currentColor" fill-opacity="0" stroke-width="2" stroke-linecap="round" stroke-linejoin="round"/>
<path d="M211.64 13.4219V14.9132" stroke="currentColor" fill-opacity="0" stroke-width="2" stroke-linecap="round" stroke-linejoin="round"/>
<path d="M214.623 31.3177C213.832 31.3177 213.073 31.0034 212.514 30.4441C211.954 29.8847 211.64 29.1261 211.64 28.335" stroke="currentColor" fill-opacity="0" stroke-width="2" stroke-linecap="round" stroke-linejoin="round"/>
<path d="M214.623 4.47395C213.832 4.47395 213.073 4.78819 212.514 5.34755C211.954 5.9069 211.64 6.66555 211.64 7.45659" stroke="currentColor" fill-opacity="0" stroke-width="2" stroke-linecap="round" stroke-linejoin="round"/>
<path d="M217.605 17.8958H232.519" stroke="currentColor" fill-opacity="0" stroke-width="2" stroke-linecap="round" stroke-linejoin="round"/>
<path d="M217.605 23.8611H226.553" stroke="currentColor" fill-opacity="0" stroke-width="2" stroke-linecap="round" stroke-linejoin="round"/>
<path d="M217.605 11.9305H229.536" stroke="currentColor" fill-opacity="0" stroke-width="2" stroke-linecap="round" stroke-linejoin="round"/>
<path d="M220.588 31.3177H222.079" stroke="currentColor" fill-opacity="0" stroke-width="2" stroke-linecap="round" stroke-linejoin="round"/>
<path d="M220.588 4.47395H222.079" stroke="currentColor" fill-opacity="0" stroke-width="2" stroke-linecap="round" stroke-linejoin="round"/>
<path d="M20.8784 83.1093H22.3697" stroke="currentColor" fill-opacity="0" stroke-width="2" stroke-linecap="round" stroke-linejoin="round"/>
<path d="M20.8784 56.2656H22.3697" stroke="currentColor" fill-opacity="0" stroke-width="2" stroke-linecap="round" stroke-linejoin="round"/>
<path d="M28.335 56.2656C29.126 56.2656 29.8846 56.5798 30.444 57.1392C31.0034 57.6985 31.3176 58.4572 31.3176 59.2482" stroke="currentColor" fill-opacity="0" stroke-width="2" stroke-linecap="round" stroke-linejoin="round"/>
<path d="M31.3179 72.6701V74.1614" stroke="currentColor" fill-opacity="0" stroke-width="2" stroke-linecap="round" stroke-linejoin="round"/>
<path d="M31.3176 80.1267C31.3176 80.9177 31.0034 81.6764 30.444 82.2357C29.8846 82.7951 29.126 83.1093 28.335 83.1093" stroke="currentColor" fill-opacity="0" stroke-width="2" stroke-linecap="round" stroke-linejoin="round"/>
<path d="M31.3179 65.2135V66.7048" stroke="currentColor" fill-opacity="0" stroke-width="2" stroke-linecap="round" stroke-linejoin="round"/>
<path d="M4.47412 72.6701V74.1614" stroke="currentColor" fill-opacity="0" stroke-width="2" stroke-linecap="round" stroke-linejoin="round"/>
<path d="M4.47412 65.2135V66.7048" stroke="currentColor" fill-opacity="0" stroke-width="2" stroke-linecap="round" stroke-linejoin="round"/>
<path d="M7.45675 83.1093C6.66571 83.1093 5.90707 82.7951 5.34771 82.2357C4.78836 81.6764 4.47412 80.9177 4.47412 80.1267" stroke="currentColor" fill-opacity="0" stroke-width="2" stroke-linecap="round" stroke-linejoin="round"/>
<path d="M7.45675 56.2656C6.66571 56.2656 5.90707 56.5798 5.34771 57.1392C4.78836 57.6985 4.47412 58.4572 4.47412 59.2482" stroke="currentColor" fill-opacity="0" stroke-width="2" stroke-linecap="round" stroke-linejoin="round"/>
<path d="M10.4395 69.6874H25.3526" stroke="currentColor" fill-opacity="0" stroke-width="2" stroke-linecap="round" stroke-linejoin="round"/>
<path d="M10.4395 75.6527H19.3873" stroke="currentColor" fill-opacity="0" stroke-width="2" stroke-linecap="round" stroke-linejoin="round"/>
<path d="M10.4395 63.7222H22.37" stroke="currentColor" fill-opacity="0" stroke-width="2" stroke-linecap="round" stroke-linejoin="round"/>
<path d="M13.4219 83.1093H14.9132" stroke="currentColor" fill-opacity="0" stroke-width="2" stroke-linecap="round" stroke-linejoin="round"/>
<path d="M13.4219 56.2656H14.9132" stroke="currentColor" fill-opacity="0" stroke-width="2" stroke-linecap="round" stroke-linejoin="round"/>
<path d="M72.6699 134.901H74.1612" stroke="currentColor" fill-opacity="0" stroke-width="2" stroke-linecap="round" stroke-linejoin="round"/>
<path d="M72.6699 108.057H74.1612" stroke="currentColor" fill-opacity="0" stroke-width="2" stroke-linecap="round" stroke-linejoin="round"/>
<path d="M80.1265 108.057C80.9175 108.057 81.6762 108.371 82.2355 108.931C82.7949 109.49 83.1091 110.249 83.1091 111.04" stroke="currentColor" fill-opacity="0" stroke-width="2" stroke-linecap="round" stroke-linejoin="round"/>
<path d="M83.1094 124.462V125.953" stroke="currentColor" fill-opacity="0" stroke-width="2" stroke-linecap="round" stroke-linejoin="round"/>
<path d="M83.1091 131.918C83.1091 132.709 82.7949 133.468 82.2355 134.027C81.6762 134.587 80.9175 134.901 80.1265 134.901" stroke="currentColor" fill-opacity="0" stroke-width="2" stroke-linecap="round" stroke-linejoin="round"/>
<path d="M83.1094 117.005V118.496" stroke="currentColor" fill-opacity="0" stroke-width="2" stroke-linecap="round" stroke-linejoin="round"/>
<path d="M56.2656 124.462V125.953" stroke="currentColor" fill-opacity="0" stroke-width="2" stroke-linecap="round" stroke-linejoin="round"/>
<path d="M56.2656 117.005V118.496" stroke="currentColor" fill-opacity="0" stroke-width="2" stroke-linecap="round" stroke-linejoin="round"/>
<path d="M59.2483 134.901C58.4572 134.901 57.6986 134.587 57.1392 134.027C56.5799 133.468 56.2656 132.709 56.2656 131.918" stroke="currentColor" fill-opacity="0" stroke-width="2" stroke-linecap="round" stroke-linejoin="round"/>
<path d="M59.2483 108.057C58.4572 108.057 57.6986 108.371 57.1392 108.931C56.5799 109.49 56.2656 110.249 56.2656 111.04" stroke="currentColor" fill-opacity="0" stroke-width="2" stroke-linecap="round" stroke-linejoin="round"/>
<path d="M62.231 121.479H77.1441" stroke="currentColor" fill-opacity="0" stroke-width="2" stroke-linecap="round" stroke-linejoin="round"/>
<path d="M62.231 127.444H71.1789" stroke="currentColor" fill-opacity="0" stroke-width="2" stroke-linecap="round" stroke-linejoin="round"/>
<path d="M62.231 115.514H74.1615" stroke="currentColor" fill-opacity="0" stroke-width="2" stroke-linecap="round" stroke-linejoin="round"/>
<path d="M65.2134 134.901H66.7047" stroke="currentColor" fill-opacity="0" stroke-width="2" stroke-linecap="round" stroke-linejoin="round"/>
<path d="M65.2134 108.057H66.7047" stroke="currentColor" fill-opacity="0" stroke-width="2" stroke-linecap="round" stroke-linejoin="round"/>
<path d="M124.461 186.693H125.953" stroke="currentColor" fill-opacity="0" stroke-width="2" stroke-linecap="round" stroke-linejoin="round"/>
<path d="M124.461 159.849H125.953" stroke="currentColor" fill-opacity="0" stroke-width="2" stroke-linecap="round" stroke-linejoin="round"/>
<path d="M131.918 159.849C132.709 159.849 133.468 160.163 134.027 160.722C134.586 161.282 134.901 162.04 134.901 162.831" stroke="currentColor" fill-opacity="0" stroke-width="2" stroke-linecap="round" stroke-linejoin="round"/>
<path d="M134.901 176.253V177.745" stroke="currentColor" fill-opacity="0" stroke-width="2" stroke-linecap="round" stroke-linejoin="round"/>
<path d="M134.901 183.71C134.901 184.501 134.586 185.26 134.027 185.819C133.468 186.378 132.709 186.693 131.918 186.693" stroke="currentColor" fill-opacity="0" stroke-width="2" stroke-linecap="round" stroke-linejoin="round"/>
<path d="M134.901 168.797V170.288" stroke="currentColor" fill-opacity="0" stroke-width="2" stroke-linecap="round" stroke-linejoin="round"/>
<path d="M108.057 176.253V177.745" stroke="currentColor" fill-opacity="0" stroke-width="2" stroke-linecap="round" stroke-linejoin="round"/>
<path d="M108.057 168.797V170.288" stroke="currentColor" fill-opacity="0" stroke-width="2" stroke-linecap="round" stroke-linejoin="round"/>
<path d="M111.04 186.693C110.249 186.693 109.49 186.378 108.931 185.819C108.371 185.26 108.057 184.501 108.057 183.71" stroke="currentColor" fill-opacity="0" stroke-width="2" stroke-linecap="round" stroke-linejoin="round"/>
<path d="M111.04 159.849C110.249 159.849 109.49 160.163 108.931 160.722C108.371 161.282 108.057 162.04 108.057 162.831" stroke="currentColor" fill-opacity="0" stroke-width="2" stroke-linecap="round" stroke-linejoin="round"/>
<path d="M114.022 173.271H128.936" stroke="currentColor" fill-opacity="0" stroke-width="2" stroke-linecap="round" stroke-linejoin="round"/>
<path d="M114.022 179.236H122.97" stroke="currentColor" fill-opacity="0" stroke-width="2" stroke-linecap="round" stroke-linejoin="round"/>
<path d="M114.022 167.305H125.953" stroke="currentColor" fill-opacity="0" stroke-width="2" stroke-linecap="round" stroke-linejoin="round"/>
<path d="M117.005 186.693H118.496" stroke="currentColor" fill-opacity="0" stroke-width="2" stroke-linecap="round" stroke-linejoin="round"/>
<path d="M117.005 159.849H118.496" stroke="currentColor" fill-opacity="0" stroke-width="2" stroke-linecap="round" stroke-linejoin="round"/>
<path d="M176.253 238.484H177.744" stroke="currentColor" fill-opacity="0" stroke-width="2" stroke-linecap="round" stroke-linejoin="round"/>
<path d="M176.253 211.64H177.744" stroke="currentColor" fill-opacity="0" stroke-width="2" stroke-linecap="round" stroke-linejoin="round"/>
<path d="M183.709 211.64C184.501 211.64 185.259 211.955 185.819 212.514C186.378 213.073 186.692 213.832 186.692 214.623" stroke="currentColor" fill-opacity="0" stroke-width="2" stroke-linecap="round" stroke-linejoin="round"/>
<path d="M186.692 228.045V229.536" stroke="currentColor" fill-opacity="0" stroke-width="2" stroke-linecap="round" stroke-linejoin="round"/>
<path d="M186.692 235.502C186.692 236.293 186.378 237.051 185.819 237.611C185.259 238.17 184.501 238.484 183.709 238.484" stroke="currentColor" fill-opacity="0" stroke-width="2" stroke-linecap="round" stroke-linejoin="round"/>
<path d="M186.692 220.588V222.08" stroke="currentColor" fill-opacity="0" stroke-width="2" stroke-linecap="round" stroke-linejoin="round"/>
<path d="M159.849 228.045V229.536" stroke="currentColor" fill-opacity="0" stroke-width="2" stroke-linecap="round" stroke-linejoin="round"/>
<path d="M159.849 220.588V222.08" stroke="currentColor" fill-opacity="0" stroke-width="2" stroke-linecap="round" stroke-linejoin="round"/>
<path d="M162.831 238.484C162.04 238.484 161.282 238.17 160.722 237.611C160.163 237.051 159.849 236.293 159.849 235.502" stroke="currentColor" fill-opacity="0" stroke-width="2" stroke-linecap="round" stroke-linejoin="round"/>
<path d="M162.831 211.64C162.04 211.64 161.282 211.955 160.722 212.514C160.163 213.073 159.849 213.832 159.849 214.623" stroke="currentColor" fill-opacity="0" stroke-width="2" stroke-linecap="round" stroke-linejoin="round"/>
<path d="M165.814 225.062H180.727" stroke="currentColor" fill-opacity="0" stroke-width="2" stroke-linecap="round" stroke-linejoin="round"/>
<path d="M165.814 231.028H174.762" stroke="currentColor" fill-opacity="0" stroke-width="2" stroke-linecap="round" stroke-linejoin="round"/>
<path d="M165.814 219.097H177.744" stroke="currentColor" fill-opacity="0" stroke-width="2" stroke-linecap="round" stroke-linejoin="round"/>
<path d="M168.796 238.484H170.288" stroke="currentColor" fill-opacity="0" stroke-width="2" stroke-linecap="round" stroke-linejoin="round"/>
<path d="M168.796 211.64H170.288" stroke="currentColor" fill-opacity="0" stroke-width="2" stroke-linecap="round" stroke-linejoin="round"/>
<path d="M120.04 11.4682C120.138 11.166 120.331 10.9032 120.589 10.7181C120.848 10.5329 121.158 10.4353 121.476 10.4393C121.794 10.4433 122.102 10.5487 122.356 10.7403C122.61 10.9318 122.796 11.1994 122.886 11.504L123.986 13.6694C124.093 13.8799 124.248 14.062 124.439 14.2007C124.63 14.3394 124.851 14.4308 125.085 14.4673L127.522 14.8491C127.835 14.8503 128.141 14.9505 128.394 15.1353C128.648 15.3202 128.837 15.5803 128.934 15.8787C129.031 16.177 129.031 16.4985 128.935 16.7972C128.839 17.0959 128.651 17.3566 128.398 17.5424L126.651 19.2842C126.483 19.4508 126.358 19.6548 126.285 19.8793C126.212 20.1038 126.193 20.3425 126.23 20.5757L126.616 22.9812C126.723 23.2827 126.729 23.6104 126.635 23.9159C126.541 24.2214 126.351 24.4886 126.094 24.6781C125.836 24.8675 125.525 24.9693 125.205 24.9682C124.885 24.9672 124.574 24.8635 124.318 24.6724L122.133 23.5539C121.923 23.446 121.69 23.3898 121.453 23.3898C121.217 23.3898 120.984 23.446 120.773 23.5539L118.589 24.6724C118.332 24.8619 118.022 24.9644 117.703 24.9647C117.385 24.9651 117.074 24.8633 116.818 24.6744C116.561 24.4854 116.371 24.2192 116.277 23.9148C116.183 23.6103 116.189 23.2837 116.293 22.9827L116.678 20.5772C116.715 20.344 116.697 20.1053 116.623 19.8808C116.55 19.6563 116.425 19.4523 116.258 19.2857L114.534 17.5662C114.272 17.3851 114.075 17.125 113.972 16.8241C113.869 16.5232 113.865 16.1972 113.96 15.8937C114.055 15.5902 114.245 15.3251 114.502 15.1371C114.759 14.9492 115.069 14.8483 115.387 14.8491L117.822 14.4673C118.055 14.4308 118.277 14.3394 118.468 14.2007C118.659 14.062 118.814 13.8799 118.921 13.6694L120.04 11.4682Z" stroke="currentColor" fill-opacity="0" stroke-width="2" stroke-linecap="round" stroke-linejoin="round"/>
<path d="M131.918 4.47395H111.04C109.392 4.47395 108.057 5.80932 108.057 7.45659V28.335C108.057 29.9823 109.392 31.3177 111.04 31.3177H131.918C133.565 31.3177 134.901 29.9823 134.901 28.335V7.45659C134.901 5.80932 133.565 4.47395 131.918 4.47395Z" stroke="currentColor" fill-opacity="0" stroke-width="2" stroke-linecap="round" stroke-linejoin="round"/>
<path d="M16.4566 166.843C16.5551 166.541 16.7476 166.278 17.0061 166.093C17.2645 165.908 17.5753 165.81 17.8932 165.814C18.2111 165.818 18.5193 165.924 18.773 166.115C19.0267 166.307 19.2126 166.574 19.3035 166.879L20.4026 169.044C20.5096 169.255 20.665 169.437 20.856 169.576C21.0471 169.714 21.2684 169.806 21.5017 169.842L23.9385 170.224C24.2523 170.225 24.5577 170.325 24.8112 170.51C25.0648 170.695 25.2536 170.955 25.3507 171.254C25.4479 171.552 25.4484 171.873 25.3523 172.172C25.2562 172.471 25.0683 172.732 24.8154 172.917L23.0676 174.659C22.9002 174.826 22.7748 175.03 22.7017 175.254C22.6286 175.479 22.6099 175.717 22.647 175.951L23.0333 178.356C23.1395 178.658 23.1461 178.985 23.052 179.291C22.9579 179.596 22.7681 179.863 22.5107 180.053C22.2532 180.242 21.9416 180.344 21.622 180.343C21.3023 180.342 20.9914 180.238 20.7352 180.047L18.5504 178.929C18.3399 178.821 18.1068 178.765 17.8703 178.765C17.6339 178.765 17.4008 178.821 17.1903 178.929L15.0055 180.047C14.7493 180.237 14.4391 180.339 14.1203 180.34C13.8016 180.34 13.4912 180.238 13.2345 180.049C12.9778 179.86 12.7885 179.594 12.6941 179.29C12.5998 178.985 12.6055 178.659 12.7104 178.358L13.0951 175.952C13.1323 175.719 13.1135 175.48 13.0404 175.256C12.9673 175.031 12.8419 174.827 12.6746 174.661L10.9506 172.941C10.6891 172.76 10.4924 172.5 10.3892 172.199C10.286 171.898 10.2818 171.572 10.3771 171.269C10.4723 170.965 10.6622 170.7 10.9189 170.512C11.1755 170.324 11.4855 170.223 11.8037 170.224L14.239 169.842C14.4723 169.806 14.6935 169.714 14.8846 169.576C15.0757 169.437 15.2311 169.255 15.3381 169.044L16.4566 166.843Z" stroke="currentColor" fill-opacity="0" stroke-width="2" stroke-linecap="round" stroke-linejoin="round"/>
<path d="M28.3352 159.849H7.45675C5.80949 159.849 4.47412 161.184 4.47412 162.831V183.71C4.47412 185.357 5.80949 186.693 7.45675 186.693H28.3352C29.9824 186.693 31.3178 185.357 31.3178 183.71V162.831C31.3178 161.184 29.9824 159.849 28.3352 159.849Z" stroke="currentColor" fill-opacity="0" stroke-width="2" stroke-linecap="round" stroke-linejoin="round"/>
<path d="M68.2481 218.635C68.3466 218.333 68.5391 218.07 68.7976 217.885C69.056 217.699 69.3668 217.602 69.6847 217.606C70.0026 217.61 70.3108 217.715 70.5645 217.907C70.8182 218.098 71.0041 218.366 71.095 218.671L72.1941 220.836C72.3011 221.046 72.4565 221.229 72.6475 221.367C72.8386 221.506 73.0599 221.597 73.2932 221.634L75.73 222.016C76.0438 222.017 76.3492 222.117 76.6027 222.302C76.8563 222.487 77.0451 222.747 77.1422 223.045C77.2394 223.344 77.2399 223.665 77.1438 223.964C77.0477 224.262 76.8598 224.523 76.6069 224.709L74.8591 226.451C74.6917 226.617 74.5664 226.821 74.4932 227.046C74.4201 227.27 74.4014 227.509 74.4385 227.742L74.8248 230.148C74.931 230.449 74.9376 230.777 74.8435 231.082C74.7494 231.388 74.5596 231.655 74.3022 231.845C74.0447 232.034 73.7331 232.136 73.4135 232.135C73.0938 232.134 72.7829 232.03 72.5267 231.839L70.3419 230.72C70.1314 230.613 69.8983 230.556 69.6618 230.556C69.4254 230.556 69.1923 230.613 68.9818 230.72L66.797 231.839C66.5408 232.028 66.2306 232.131 65.9119 232.131C65.5931 232.132 65.2827 232.03 65.026 231.841C64.7694 231.652 64.58 231.386 64.4857 231.081C64.3913 230.777 64.397 230.45 64.5019 230.149L64.8866 227.744C64.9238 227.511 64.905 227.272 64.8319 227.047C64.7588 226.823 64.6334 226.619 64.4661 226.452L62.7421 224.733C62.4806 224.552 62.2839 224.292 62.1807 223.991C62.0775 223.69 62.0733 223.364 62.1686 223.06C62.2639 222.757 62.4537 222.492 62.7104 222.304C62.967 222.116 63.2771 222.015 63.5952 222.016L66.0305 221.634C66.2638 221.597 66.4851 221.506 66.6761 221.367C66.8672 221.229 67.0226 221.046 67.1296 220.836L68.2481 218.635Z" stroke="currentColor" fill-opacity="0" stroke-width="2" stroke-linecap="round" stroke-linejoin="round"/>
<path d="M80.1267 211.64H59.2483C57.601 211.64 56.2656 212.976 56.2656 214.623V235.502C56.2656 237.149 57.601 238.484 59.2483 238.484H80.1267C81.7739 238.484 83.1093 237.149 83.1093 235.502V214.623C83.1093 212.976 81.7739 211.64 80.1267 211.64Z" stroke="currentColor" fill-opacity="0" stroke-width="2" stroke-linecap="round" stroke-linejoin="round"/>
<path d="M171.831 63.2599C171.93 62.9576 172.122 62.6948 172.381 62.5097C172.639 62.3246 172.95 62.2269 173.268 62.2309C173.586 62.2349 173.894 62.3404 174.148 62.5319C174.401 62.7234 174.587 62.991 174.678 63.2957L175.777 65.4611C175.884 65.6716 176.039 65.8536 176.231 65.9924C176.422 66.1311 176.643 66.2224 176.876 66.2589L179.313 66.6407C179.627 66.6419 179.932 66.7421 180.186 66.9269C180.439 67.1118 180.628 67.3719 180.725 67.6703C180.822 67.9687 180.823 68.2901 180.727 68.5888C180.631 68.8875 180.443 69.1483 180.19 69.334L178.442 71.0759C178.275 71.2425 178.149 71.4464 178.076 71.6709C178.003 71.8955 177.984 72.1342 178.022 72.3673L178.408 74.7728C178.514 75.0743 178.521 75.402 178.427 75.7075C178.332 76.013 178.143 76.2802 177.885 76.4697C177.628 76.6592 177.316 76.7609 176.996 76.7599C176.677 76.7588 176.366 76.6551 176.11 76.464L173.925 75.3455C173.714 75.2377 173.481 75.1814 173.245 75.1814C173.008 75.1814 172.775 75.2377 172.565 75.3455L170.38 76.464C170.124 76.6535 169.814 76.756 169.495 76.7564C169.176 76.7567 168.866 76.655 168.609 76.466C168.352 76.277 168.163 76.0108 168.069 75.7064C167.974 75.402 167.98 75.0753 168.085 74.7743L168.47 72.3688C168.507 72.1356 168.488 71.897 168.415 71.6724C168.342 71.4479 168.216 71.244 168.049 71.0774L166.325 69.3579C166.064 69.1767 165.867 68.9167 165.764 68.6158C165.661 68.3148 165.656 67.9888 165.752 67.6853C165.847 67.3818 166.037 67.1167 166.293 66.9288C166.55 66.7408 166.86 66.6399 167.178 66.6407L169.613 66.2589C169.847 66.2224 170.068 66.1311 170.259 65.9924C170.45 65.8536 170.606 65.6716 170.713 65.4611L171.831 63.2599Z" stroke="currentColor" fill-opacity="0" stroke-width="2" stroke-linecap="round" stroke-linejoin="round"/>
<path d="M183.71 56.2656H162.831C161.184 56.2656 159.849 57.601 159.849 59.2482V80.1267C159.849 81.7739 161.184 83.1093 162.831 83.1093H183.71C185.357 83.1093 186.692 81.7739 186.692 80.1267V59.2482C186.692 57.601 185.357 56.2656 183.71 56.2656Z" stroke="currentColor" fill-opacity="0" stroke-width="2" stroke-linecap="round" stroke-linejoin="round"/>
<path d="M223.623 115.051C223.721 114.749 223.914 114.486 224.172 114.301C224.431 114.116 224.741 114.019 225.059 114.023C225.377 114.027 225.685 114.132 225.939 114.324C226.193 114.515 226.379 114.783 226.47 115.087L227.569 117.253C227.676 117.463 227.831 117.645 228.022 117.784C228.213 117.923 228.434 118.014 228.668 118.051L231.105 118.432C231.418 118.434 231.724 118.534 231.977 118.719C232.231 118.903 232.42 119.164 232.517 119.462C232.614 119.76 232.614 120.082 232.518 120.38C232.422 120.679 232.234 120.94 231.981 121.126L230.234 122.867C230.066 123.034 229.941 123.238 229.868 123.463C229.795 123.687 229.776 123.926 229.813 124.159L230.199 126.564C230.306 126.866 230.312 127.194 230.218 127.499C230.124 127.805 229.934 128.072 229.677 128.261C229.419 128.451 229.108 128.553 228.788 128.551C228.468 128.55 228.157 128.447 227.901 128.256L225.716 127.137C225.506 127.029 225.273 126.973 225.036 126.973C224.8 126.973 224.567 127.029 224.356 127.137L222.172 128.256C221.915 128.445 221.605 128.548 221.286 128.548C220.968 128.548 220.657 128.447 220.401 128.258C220.144 128.069 219.954 127.802 219.86 127.498C219.766 127.194 219.772 126.867 219.876 126.566L220.261 124.16C220.298 123.927 220.28 123.689 220.206 123.464C220.133 123.24 220.008 123.036 219.841 122.869L218.117 121.149C217.855 120.968 217.658 120.708 217.555 120.407C217.452 120.106 217.448 119.78 217.543 119.477C217.638 119.173 217.828 118.908 218.085 118.72C218.342 118.532 218.652 118.432 218.97 118.432L221.405 118.051C221.638 118.014 221.86 117.923 222.051 117.784C222.242 117.645 222.397 117.463 222.504 117.253L223.623 115.051Z" stroke="currentColor" fill-opacity="0" stroke-width="2" stroke-linecap="round" stroke-linejoin="round"/>
<path d="M235.501 108.057H214.623C212.976 108.057 211.64 109.393 211.64 111.04V131.918C211.64 133.566 212.976 134.901 214.623 134.901H235.501C237.148 134.901 238.484 133.566 238.484 131.918V111.04C238.484 109.393 237.148 108.057 235.501 108.057Z" stroke="currentColor" fill-opacity="0" stroke-width="2" stroke-linecap="round" stroke-linejoin="round"/>
<path d="M78.635 31.3177C78.635 28.9445 77.6923 26.6686 76.0143 24.9905C74.3362 23.3125 72.0603 22.3698 69.6872 22.3698C67.314 22.3698 65.0381 23.3125 63.36 24.9905C61.682 26.6686 60.7393 28.9445 60.7393 31.3177" stroke="currentColor" fill-opacity="0" stroke-width="2" stroke-linecap="round" stroke-linejoin="round"/>
<path d="M69.6874 22.3698C72.982 22.3698 75.6527 19.699 75.6527 16.4045C75.6527 13.11 72.982 10.4392 69.6874 10.4392C66.3929 10.4392 63.7222 13.11 63.7222 16.4045C63.7222 19.699 66.3929 22.3698 69.6874 22.3698Z" stroke="currentColor" fill-opacity="0" stroke-width="2" stroke-linecap="round" stroke-linejoin="round"/>
<path d="M80.1267 4.47395H59.2483C57.601 4.47395 56.2656 5.80932 56.2656 7.45659V28.335C56.2656 29.9823 57.601 31.3177 59.2483 31.3177H80.1267C81.7739 31.3177 83.1093 29.9823 83.1093 28.335V7.45659C83.1093 5.80932 81.7739 4.47395 80.1267 4.47395Z" stroke="currentColor" fill-opacity="0" stroke-width="2" stroke-linecap="round" stroke-linejoin="round"/>
<path d="M26.8435 238.484C26.8435 236.111 25.9008 233.835 24.2228 232.157C22.5447 230.479 20.2688 229.536 17.8956 229.536C15.5225 229.536 13.2466 230.479 11.5685 232.157C9.89048 233.835 8.94775 236.111 8.94775 238.484" stroke="currentColor" fill-opacity="0" stroke-width="2" stroke-linecap="round" stroke-linejoin="round"/>
<path d="M17.8959 229.536C21.1905 229.536 23.8612 226.866 23.8612 223.571C23.8612 220.276 21.1905 217.606 17.8959 217.606C14.6014 217.606 11.9307 220.276 11.9307 223.571C11.9307 226.866 14.6014 229.536 17.8959 229.536Z" stroke="currentColor" fill-opacity="0" stroke-width="2" stroke-linecap="round" stroke-linejoin="round"/>
<path d="M28.3352 211.64H7.45675C5.80949 211.64 4.47412 212.976 4.47412 214.623V235.502C4.47412 237.149 5.80949 238.484 7.45675 238.484H28.3352C29.9824 238.484 31.3178 237.149 31.3178 235.502V214.623C31.3178 212.976 29.9824 211.64 28.3352 211.64Z" stroke="currentColor" fill-opacity="0" stroke-width="2" stroke-linecap="round" stroke-linejoin="round"/>
<path d="M130.427 83.1093C130.427 80.7362 129.484 78.4602 127.806 76.7822C126.128 75.1041 123.852 74.1614 121.479 74.1614C119.106 74.1614 116.83 75.1041 115.152 76.7822C113.473 78.4602 112.531 80.7362 112.531 83.1093" stroke="currentColor" fill-opacity="0" stroke-width="2" stroke-linecap="round" stroke-linejoin="round"/>
<path d="M121.479 74.1614C124.773 74.1614 127.444 71.4907 127.444 68.1961C127.444 64.9016 124.773 62.2309 121.479 62.2309C118.184 62.2309 115.514 64.9016 115.514 68.1961C115.514 71.4907 118.184 74.1614 121.479 74.1614Z" stroke="currentColor" fill-opacity="0" stroke-width="2" stroke-linecap="round" stroke-linejoin="round"/>
<path d="M131.918 56.2656H111.04C109.392 56.2656 108.057 57.601 108.057 59.2482V80.1267C108.057 81.7739 109.392 83.1093 111.04 83.1093H131.918C133.565 83.1093 134.901 81.7739 134.901 80.1267V59.2482C134.901 57.601 133.565 56.2656 131.918 56.2656Z" stroke="currentColor" fill-opacity="0" stroke-width="2" stroke-linecap="round" stroke-linejoin="round"/>
<path d="M182.218 134.901C182.218 132.528 181.275 130.252 179.597 128.574C177.919 126.896 175.643 125.953 173.27 125.953C170.897 125.953 168.621 126.896 166.943 128.574C165.265 130.252 164.322 132.528 164.322 134.901" stroke="currentColor" fill-opacity="0" stroke-width="2" stroke-linecap="round" stroke-linejoin="round"/>
<path d="M173.27 125.953C176.565 125.953 179.236 123.282 179.236 119.988C179.236 116.693 176.565 114.022 173.27 114.022C169.976 114.022 167.305 116.693 167.305 119.988C167.305 123.282 169.976 125.953 173.27 125.953Z" stroke="currentColor" fill-opacity="0" stroke-width="2" stroke-linecap="round" stroke-linejoin="round"/>
<path d="M183.71 108.057H162.831C161.184 108.057 159.849 109.393 159.849 111.04V131.918C159.849 133.566 161.184 134.901 162.831 134.901H183.71C185.357 134.901 186.692 133.566 186.692 131.918V111.04C186.692 109.393 185.357 108.057 183.71 108.057Z" stroke="currentColor" fill-opacity="0" stroke-width="2" stroke-linecap="round" stroke-linejoin="round"/>
<path d="M234.01 186.693C234.01 184.319 233.067 182.043 231.389 180.365C229.711 178.687 227.435 177.745 225.062 177.745C222.689 177.745 220.413 178.687 218.735 180.365C217.056 182.043 216.114 184.319 216.114 186.693" stroke="currentColor" fill-opacity="0" stroke-width="2" stroke-linecap="round" stroke-linejoin="round"/>
<path d="M225.062 177.745C228.356 177.745 231.027 175.074 231.027 171.779C231.027 168.485 228.356 165.814 225.062 165.814C221.767 165.814 219.097 168.485 219.097 171.779C219.097 175.074 221.767 177.745 225.062 177.745Z" stroke="currentColor" fill-opacity="0" stroke-width="2" stroke-linecap="round" stroke-linejoin="round"/>
<path d="M235.501 159.849H214.623C212.976 159.849 211.64 161.184 211.64 162.831V183.71C211.64 185.357 212.976 186.693 214.623 186.693H235.501C237.148 186.693 238.484 185.357 238.484 183.71V162.831C238.484 161.184 237.148 159.849 235.501 159.849Z" stroke="currentColor" fill-opacity="0" stroke-width="2" stroke-linecap="round" stroke-linejoin="round"/>
</g>
</pattern></defs>
</svg>
