<svg width="16" height="16" viewBox="0 0 16 16" fill="none" xmlns="http://www.w3.org/2000/svg">
<path d="M8.99999 10H6.99998V9H5.99998V7H6.99998V6H8.99999V7H9.99999V9H8.99999V10Z" fill="#D9FCFF"/>
<path d="M5.99998 9H6.99998V10H5.99998V9Z" fill="#0058D5"/>
<path d="M6.99998 10H7.99998V11H6.99998V10Z" fill="#0070DB"/>
<path d="M7.99998 10H8.99999V11H7.99998V10Z" fill="#0046CF"/>
<path d="M8.99999 9H9.99999V10H8.99999V9Z" fill="#0072DA"/>
<path d="M9.99999 8H11V9H9.99999V8Z" fill="#007EDC"/>
<path d="M9.99999 7H11V8H9.99999V7Z" fill="#0060D9"/>
<path d="M8.99999 6H9.99999V7H8.99999V6Z" fill="#0074DB"/>
<path d="M6.99998 5H7.99998V6H6.99998V5Z" fill="#0061D9"/>
<path d="M7.99998 5H8.99999V6H7.99998V5Z" fill="#0081DD"/>
<path d="M5.99998 6H6.99998V7H5.99998V6Z" fill="#0057D4"/>
<path d="M4.99998 7H5.99998V8H4.99998V7Z" fill="#0070DB"/>
<path d="M4.99998 8H5.99998V9H4.99998V8Z" fill="#0046CF"/>
<path d="M11 6H12V7H11V6Z" fill="#0069D8"/>
<path d="M12 4H13V5H12V4Z" fill="#002FCB"/>
<path d="M13 5H14V6H13V5Z" fill="#0044CF"/>
<path d="M14 6H15V7H14V6Z" fill="#002CCF"/>
<path d="M14 7H15V8H14V7Z" fill="#0049D3"/>
<path d="M14 8H15V9H14V8Z" fill="#0049D3"/>
<path d="M14 9H15V10H14V9Z" fill="#002CCF"/>
<path d="M11 5H12V6H11V5Z" fill="#0049D0"/>
<path d="M12 3H13V4H12V3Z" fill="#0046D5"/>
<path d="M13 4H14V5H13V4Z" fill="#0000C5"/>
<path d="M13 10H14V11H13V10Z" fill="#0044CF"/>
<path d="M13 11H14V12H13V11Z" fill="#0000C5"/>
<path d="M12 11H13V12H12V11Z" fill="#002FCB"/>
<path d="M12 12H13V13H12V12Z" fill="#0046D5"/>
<path d="M8.99999 11H9.99999V12H8.99999V11Z" fill="#0069D8"/>
<path d="M9.99999 11H11V12H9.99999V11Z" fill="#0049D0"/>
<path d="M11 12H12V13H11V12Z" fill="#002FCB"/>
<path d="M11 12V10H9.99999V9H11V10H12V9H13V10H12V12H11Z" fill="#0093DE"/>
<path d="M11 9H12V10H11V9Z" fill="#0096E0"/>
<path d="M12 10H13V11H12V10Z" fill="#008DDD"/>
<path d="M13 9H14V10H13V9Z" fill="#007CDA"/>
<path d="M12 8H13V9H12V8Z" fill="#008FDD"/>
<path d="M13 8H14V9H13V8Z" fill="#008ADD"/>
<path d="M13 6H14V7H13V6Z" fill="#0075D9"/>
<path d="M12 5H13V6H12V5Z" fill="#0075D9"/>
<path d="M12 6H13V7H12V6Z" fill="#007AD9"/>
<path d="M14 8H11V7H14V8Z" fill="#0089DE"/>
<path d="M11 8H12V9H11V8Z" fill="#0093DE"/>
<path d="M8.99999 10H11V11H8.99999V10Z" fill="#009ADF"/>
<path d="M9.99999 11V12H8.99999V11H9.99999Z" fill="#0069D8"/>
<path d="M12 12V13H11V12H12Z" fill="#002FCB"/>
<path d="M11 13L11 14H9.99999V13L11 13Z" fill="#0044CF"/>
<path d="M9.99999 14V15H8.99999V14H9.99999Z" fill="#002CCF"/>
<path d="M8.99999 14V15H7.99998V14H8.99999Z" fill="#0049D3"/>
<path d="M7.99998 14V15H6.99998V14H7.99998Z" fill="#0049D3"/>
<path d="M6.99998 14V15H5.99998V14H6.99998Z" fill="#002CCF"/>
<path d="M11 11V12H9.99999V11H11Z" fill="#0049D0"/>
<path d="M13 12V13H12V12H13Z" fill="#0046D5"/>
<path d="M12 13L12 14H11L11 13H12Z" fill="#0000C5"/>
<path d="M5.99998 13V14H4.99998V13H5.99998Z" fill="#0044CF"/>
<path d="M4.99998 13V14H3.99998V13H4.99998Z" fill="#0000C5"/>
<path d="M4.99998 12V13H3.99998V12H4.99998Z" fill="#002FCB"/>
<path d="M3.99998 12V13H2.99997V12H3.99998Z" fill="#0046D5"/>
<path d="M4.99998 9V10H3.99998V9H4.99998Z" fill="#0069D8"/>
<path d="M4.99998 10V11H3.99998V10H4.99998Z" fill="#0049D0"/>
<path d="M3.99998 11V12H2.99997V11H3.99998Z" fill="#002FCB"/>
<path d="M3.99998 11H5.99998V10H6.99998V11H5.99998V12H6.99998V13H5.99998V12H3.99998V11Z" fill="#0093DE"/>
<path d="M6.99998 11V12H5.99998V11H6.99998Z" fill="#0096E0"/>
<path d="M5.99998 12V13H4.99998V12H5.99998Z" fill="#008DDD"/>
<path d="M6.99998 13V14H5.99998V13H6.99998Z" fill="#007CDA"/>
<path d="M7.99998 12V13H6.99998V12H7.99998Z" fill="#008FDD"/>
<path d="M7.99998 13V14H6.99998V13H7.99998Z" fill="#008ADD"/>
<path d="M9.99999 13V14H8.99999V13H9.99999Z" fill="#0075D9"/>
<path d="M11 12V13L9.99999 13L9.99999 12H11Z" fill="#0075D9"/>
<path d="M9.99999 12L9.99999 13H8.99999L8.99999 12H9.99999Z" fill="#007AD9"/>
<path d="M7.99998 14V11H8.99999L8.99999 14H7.99998Z" fill="#0089DE"/>
<path d="M7.99998 11V12H6.99998V11H7.99998Z" fill="#0093DE"/>
<path d="M5.99998 9V11H4.99998V9H5.99998Z" fill="#009ADF"/>
<path d="M4.99998 10H3.99998V9H4.99998V10Z" fill="#0069D8"/>
<path d="M3.99998 12H2.99997V11H3.99998V12Z" fill="#002FCB"/>
<path d="M2.99997 11L2 11V10H3L2.99997 11Z" fill="#0044CF"/>
<path d="M2 10H1V9H2V10Z" fill="#002CCF"/>
<path d="M2 9H1V8H2V9Z" fill="#0049D3"/>
<path d="M2 8H1V7H2V8Z" fill="#0049D3"/>
<path d="M2 7H1V6H2V7Z" fill="#002CCF"/>
<path d="M4.99998 11H3.99998V10H4.99998V11Z" fill="#0049D0"/>
<path d="M3.99998 13H2.99997V12H3.99998V13Z" fill="#0046D5"/>
<path d="M2.99997 12H2V11L2.99997 11V12Z" fill="#0000C5"/>
<path d="M3 6H2V5H3V6Z" fill="#0044CF"/>
<path d="M3 5H2V4H3V5Z" fill="#0000C5"/>
<path d="M4.00001 5H3V4H4.00001V5Z" fill="#002FCB"/>
<path d="M4.00001 4H3V3H4.00001V4Z" fill="#0046D5"/>
<path d="M6.99998 5L6.00001 5V4H7.00001L6.99998 5Z" fill="#0069D8"/>
<path d="M6.00001 5H5.00001V4H6.00001V5Z" fill="#0049D0"/>
<path d="M5.00001 4H4.00001V3H5.00001V4Z" fill="#002FCB"/>
<path d="M5.00001 4V6L5.99998 6V7H4.99998L5.00001 6H4.00001V7H3V6H4.00001V4H5.00001Z" fill="#0093DE"/>
<path d="M4.99998 7L4.00001 7V6H5.00001L4.99998 7Z" fill="#0096E0"/>
<path d="M4.00001 6H3V5H4.00001V6Z" fill="#008DDD"/>
<path d="M3 7H2V6H3V7Z" fill="#007CDA"/>
<path d="M4.00001 8H3V7H4.00001V8Z" fill="#008FDD"/>
<path d="M3 8H2V7H3V8Z" fill="#008ADD"/>
<path d="M3 10H2V9H3V10Z" fill="#0075D9"/>
<path d="M3.99998 11H2.99997L3 10L3.99998 10V11Z" fill="#0075D9"/>
<path d="M3.99998 10L3 10V9L3.99998 9V10Z" fill="#007AD9"/>
<path d="M2 8L4.99998 8V9L2 9V8Z" fill="#0089DE"/>
<path d="M4.99998 8L4.00001 8V7L4.99998 7V8Z" fill="#0093DE"/>
<path d="M6.99998 6L5.00001 6V5L6.99998 5V6Z" fill="#009ADF"/>
<path d="M6.00001 5V4H7.00001L6.99998 5L6.00001 5Z" fill="#0069D8"/>
<path d="M4.00001 4V3H5.00001V4H4.00001Z" fill="#002FCB"/>
<path d="M5.00001 3L4.99998 2H5.99998V3L5.00001 3Z" fill="#0044CF"/>
<path d="M5.99998 2V1H6.99998V2H5.99998Z" fill="#002CCF"/>
<path d="M6.99998 2V1H7.99998V2H6.99998Z" fill="#0049D3"/>
<path d="M7.99998 2V1H8.99999V2H7.99998Z" fill="#0049D3"/>
<path d="M8.99999 2V1H9.99999V2H8.99999Z" fill="#002CCF"/>
<path d="M5.00001 5V4H6.00001V5H5.00001Z" fill="#0049D0"/>
<path d="M3 4V3H4.00001V4H3Z" fill="#0046D5"/>
<path d="M4.00001 3L3.99998 2H4.99998L5.00001 3H4.00001Z" fill="#0000C5"/>
<path d="M9.99999 3V2H11V3H9.99999Z" fill="#0044CF"/>
<path d="M11 3V2H12L12 3L11 3Z" fill="#0000C5"/>
<path d="M11 4V3L12 3V4L11 4Z" fill="#002FCB"/>
<path d="M12 4V3H13V4H12Z" fill="#0046D5"/>
<path d="M11 7V6H12V7H11Z" fill="#0069D8"/>
<path d="M11 6V5H12V6H11Z" fill="#0049D0"/>
<path d="M12 5V4H13V5H12Z" fill="#002FCB"/>
<path d="M12 5L9.99999 5L9.99999 6H8.99999V5L9.99999 5V4H8.99999V3H9.99999V4L12 4V5Z" fill="#0093DE"/>
<path d="M8.99999 5L8.99999 4H9.99999V5L8.99999 5Z" fill="#0096E0"/>
<path d="M9.99999 4V3H11V4H9.99999Z" fill="#008DDD"/>
<path d="M8.99999 3V2H9.99999V3H8.99999Z" fill="#007CDA"/>
<path d="M7.99998 4V3H8.99999V4H7.99998Z" fill="#008FDD"/>
<path d="M7.99998 3V2H8.99999V3H7.99998Z" fill="#008ADD"/>
<path d="M5.99998 3V2H6.99998V3H5.99998Z" fill="#0075D9"/>
<path d="M5.00001 4V3L5.99998 3L6.00001 4H5.00001Z" fill="#0075D9"/>
<path d="M6.00001 4L5.99998 3H6.99998L7.00001 4H6.00001Z" fill="#007AD9"/>
<path d="M7.99998 2L7.99998 5H6.99998L6.99998 2H7.99998Z" fill="#0089DE"/>
<path d="M7.99998 5L7.99998 4H8.99999L8.99999 5H7.99998Z" fill="#0093DE"/>
<path d="M9.99999 7L9.99999 5L11 5V7H9.99999Z" fill="#009ADF"/>
</svg>
