<svg width="989" height="503" viewBox="0 0 989 503" fill="none" xmlns="http://www.w3.org/2000/svg">
<g clip-path="url(#clip0_14_4)">
<rect x="296" y="47" width="682" height="88" rx="8" fill="currentColor" fill-opacity="0.03"/>
<rect x="309" y="59" width="64" height="64" rx="4" fill="currentColor" fill-opacity="0.32"/>
<rect x="385" y="59" width="190" height="22" rx="11" fill="currentColor" fill-opacity="0.24"/>
<rect x="385" y="96" width="436" height="11" rx="5.5" fill="currentColor" fill-opacity="0.12"/>
<rect x="385" y="112" width="436" height="11" rx="5.5" fill="currentColor" fill-opacity="0.12"/>
<rect x="296" y="148" width="682" height="88" rx="8" fill="currentColor" fill-opacity="0.03"/>
<rect x="309" y="160" width="64" height="64" rx="4" fill="currentColor" fill-opacity="0.32"/>
<rect x="385" y="160" width="190" height="22" rx="11" fill="currentColor" fill-opacity="0.24"/>
<rect x="385" y="197" width="436" height="11" rx="5.5" fill="currentColor" fill-opacity="0.12"/>
<rect x="385" y="213" width="436" height="11" rx="5.5" fill="currentColor" fill-opacity="0.12"/>
<rect x="296" y="249" width="682" height="88" rx="8" fill="currentColor" fill-opacity="0.03"/>
<rect x="309" y="261" width="64" height="64" rx="4" fill="currentColor" fill-opacity="0.32"/>
<rect x="385" y="261" width="190" height="22" rx="11" fill="currentColor" fill-opacity="0.24"/>
<rect x="385" y="298" width="436" height="11" rx="5.5" fill="currentColor" fill-opacity="0.12"/>
<rect x="385" y="314" width="436" height="11" rx="5.5" fill="currentColor" fill-opacity="0.12"/>
<rect x="296" y="350" width="682" height="88" rx="8" fill="currentColor" fill-opacity="0.03"/>
<rect x="309" y="362" width="64" height="64" rx="4" fill="currentColor" fill-opacity="0.32"/>
<rect x="385" y="362" width="190" height="22" rx="11" fill="currentColor" fill-opacity="0.24"/>
<rect x="385" y="399" width="436" height="11" rx="5.5" fill="currentColor" fill-opacity="0.12"/>
<rect x="385" y="415" width="436" height="11" rx="5.5" fill="currentColor" fill-opacity="0.12"/>
<rect x="296" y="451" width="682" height="88" rx="8" fill="currentColor" fill-opacity="0.03"/>
<rect x="309" y="463" width="64" height="64" rx="4" fill="currentColor" fill-opacity="0.32"/>
<rect x="385" y="463" width="190" height="22" rx="11" fill="currentColor" fill-opacity="0.24"/>
<rect x="385" y="500" width="436" height="11" rx="5.5" fill="currentColor" fill-opacity="0.12"/>
<rect x="296" y="10" width="272" height="25" rx="4" fill="currentColor" fill-opacity="0.18"/>
<rect x="10" y="451" width="44" height="44" rx="9" fill="currentColor" fill-opacity="0.12"/>
<rect x="10" y="89" width="44" height="334" rx="9" fill="currentColor" fill-opacity="0.12"/>
<rect x="11" y="59" width="41" height="7" rx="3.5" fill="currentColor" fill-opacity="0.18"/>
<rect x="76" y="26" width="189" height="106" rx="15" fill="currentColor" fill-opacity="0.32"/>
<rect x="98" y="10" width="146" height="11" rx="5.5" fill="currentColor" fill-opacity="0.12"/>
<rect x="76" y="150" width="150" height="11" rx="5.5" fill="currentColor" fill-opacity="0.12"/>
<rect x="76" y="167" width="183" height="24" rx="4" fill="currentColor" fill-opacity="0.18"/>
<rect x="76" y="202" width="114" height="11" rx="5.5" fill="currentColor" fill-opacity="0.12"/>
<rect x="76" y="219" width="183" height="24" rx="4" fill="currentColor" fill-opacity="0.18"/>
<rect x="76" y="254" width="80" height="11" rx="5.5" fill="currentColor" fill-opacity="0.12"/>
<rect x="76" y="271" width="183" height="24" rx="4" fill="currentColor" fill-opacity="0.18"/>
<rect x="77" y="308" width="16" height="16" rx="2" stroke="currentColor" stroke-opacity="0.18" stroke-width="2"/>
<rect x="77" y="334" width="16" height="16" rx="2" stroke="currentColor" stroke-opacity="0.18" stroke-width="2"/>
<rect x="77" y="360" width="16" height="16" rx="2" stroke="currentColor" stroke-opacity="0.18" stroke-width="2"/>
<rect x="77" y="386" width="16" height="16" rx="2" stroke="currentColor" stroke-opacity="0.18" stroke-width="2"/>
<rect x="98" y="389" width="133" height="10" rx="5" fill="currentColor" fill-opacity="0.12"/>
<rect x="98" y="363" width="158" height="10" rx="5" fill="currentColor" fill-opacity="0.12"/>
<rect x="98" y="337" width="166" height="10" rx="5" fill="currentColor" fill-opacity="0.12"/>
<rect x="98" y="311" width="154" height="10" rx="5" fill="currentColor" fill-opacity="0.12"/>
<rect x="96" y="416" width="148" height="28" rx="8" fill="currentColor" fill-opacity="0.12"/>
<rect x="96" y="450" width="148" height="28" rx="8" fill="currentColor" fill-opacity="0.12"/>
<rect x="10" y="10" width="44" height="44" rx="9" fill="currentColor" fill-opacity="0.32"/>
</g>
<defs>
<clipPath id="clip0_14_4">
<rect width="989" height="503" fill="currentColor"/>
</clipPath>
</defs>
</svg>
