<svg width="990" height="503" viewBox="0 0 990 503" fill="none" xmlns="http://www.w3.org/2000/svg">
<g clip-path="url(#clip0_14_78)">
<rect y="43" width="990" height="1" fill="currentColor" fill-opacity="0.07"/>
<rect width="990" height="1" fill="currentColor" fill-opacity="0.07"/>
<rect y="129" width="990" height="1" fill="currentColor" fill-opacity="0.07"/>
<rect y="387" width="990" height="1" fill="currentColor" fill-opacity="0.07"/>
<rect y="344" width="990" height="1" fill="currentColor" fill-opacity="0.07"/>
<rect y="86" width="990" height="1" fill="currentColor" fill-opacity="0.07"/>
<rect y="215" width="990" height="1" fill="currentColor" fill-opacity="0.07"/>
<rect y="172" width="990" height="1" fill="currentColor" fill-opacity="0.07"/>
<rect y="301" width="990" height="1" fill="currentColor" fill-opacity="0.07"/>
<rect y="258" width="990" height="1" fill="currentColor" fill-opacity="0.07"/>
<rect width="1" height="435" fill="currentColor" fill-opacity="0.07"/>
<rect x="43" width="1" height="435" fill="currentColor" fill-opacity="0.07"/>
<rect x="86" width="1" height="435" fill="currentColor" fill-opacity="0.07"/>
<rect x="129" width="1" height="435" fill="currentColor" fill-opacity="0.07"/>
<rect x="172" width="1" height="435" fill="currentColor" fill-opacity="0.07"/>
<rect x="215" width="1" height="435" fill="currentColor" fill-opacity="0.07"/>
<rect x="258" width="1" height="435" fill="currentColor" fill-opacity="0.07"/>
<rect x="301" width="1" height="435" fill="currentColor" fill-opacity="0.07"/>
<rect x="344" width="1" height="435" fill="currentColor" fill-opacity="0.07"/>
<rect x="387" width="1" height="435" fill="currentColor" fill-opacity="0.07"/>
<rect x="430" width="1" height="435" fill="currentColor" fill-opacity="0.07"/>
<rect x="473" width="1" height="435" fill="currentColor" fill-opacity="0.07"/>
<rect x="516" width="1" height="435" fill="currentColor" fill-opacity="0.07"/>
<rect x="559" width="1" height="435" fill="currentColor" fill-opacity="0.07"/>
<rect x="602" width="1" height="435" fill="currentColor" fill-opacity="0.07"/>
<rect x="645" width="1" height="435" fill="currentColor" fill-opacity="0.07"/>
<rect x="688" width="1" height="435" fill="currentColor" fill-opacity="0.07"/>
<rect x="731" width="1" height="435" fill="currentColor" fill-opacity="0.07"/>
<rect x="774" width="1" height="435" fill="currentColor" fill-opacity="0.07"/>
<rect x="817" width="1" height="435" fill="currentColor" fill-opacity="0.07"/>
<rect x="860" width="1" height="435" fill="currentColor" fill-opacity="0.07"/>
<rect x="903" width="1" height="435" fill="currentColor" fill-opacity="0.07"/>
<rect x="946" width="1" height="435" fill="currentColor" fill-opacity="0.07"/>
<rect x="989" width="1" height="435" fill="currentColor" fill-opacity="0.07"/>
<rect x="3" y="431" width="990" height="1" fill="currentColor" fill-opacity="0.07"/>
<path d="M0 435H990V503H0V435Z" fill="currentColor" fill-opacity="0.12"/>
<path d="M14.88 485.576L30.144 454.712H34.416L19.152 485.576H14.88ZM40.2863 485.576V459.08H44.6543V454.712H58.1903V459.08H62.6063V485.576H57.7103V459.56H45.1343V467.768H53.8703V472.52H45.1343V485.576H40.2863ZM72.7793 485.576V481.256H68.4113V467.768H72.7793V463.4H86.3153V467.768H90.7313V472.52H85.8353V468.2H73.2593V472.04H81.9953V476.888H73.2593V480.776H85.8353V476.36H90.7313V481.208H86.3153V485.576H72.7793ZM100.904 485.576V481.256H96.5363V467.768H100.904V463.4H114.44V467.768H118.856V472.52H113.96V468.2H101.384V480.776H113.96V476.408H118.856V481.256H114.44V485.576H100.904ZM130.959 485.576V481.256H126.639V468.2H122.271V463.4H126.639V454.712H131.439V463.4H144.591V468.2H131.439V480.776H144.111V476.408H148.959V481.256H144.591V485.576H130.959ZM157.67 485.576V481.256H153.302V467.768H157.67V463.4H171.206V467.768H175.622V481.256H171.206V485.576H157.67ZM158.15 480.776H170.726V468.2H158.15V480.776ZM181.427 485.576V463.4H199.331V467.768H203.747V485.576H198.851V468.2H186.275V485.576H181.427ZM212.467 485.576V481.256H208.099V467.768H212.467V463.4H226.003V467.768H230.419V472.52H225.523V468.2H212.947V472.04H221.683V476.888H212.947V480.776H225.523V476.36H230.419V481.208H226.003V485.576H212.467ZM234.448 475.4V470.552H247.984V475.4H234.448ZM256.576 485.576V481.256H252.208V467.768H256.576V463.4H270.112V467.768H274.528V472.52H269.632V468.2H257.056V480.776H269.632V476.408H274.528V481.256H270.112V485.576H256.576ZM279.396 485.576V454.712H284.244V467.768H288.084V463.4H297.3V467.768H301.716V485.576H296.82V468.2H288.564V472.52H284.244V485.576H279.396ZM310.951 485.576V481.256H306.583V467.768H310.951V463.4H324.487V467.768H328.903V480.776H333.271V485.576H328.423V481.256H324.487V485.576H310.951ZM311.431 480.776H324.007V468.2H311.431V480.776ZM342.459 485.576V481.256H338.139V468.2H333.771V463.4H338.139V454.712H342.939V463.4H356.091V468.2H342.939V480.776H355.611V476.408H360.459V481.256H356.091V485.576H342.459ZM366.255 485V480.152H381.711V485H366.255Z" fill="currentColor" fill-opacity="0.18"/>
<path d="M38.248 114.576V110.256H33.88V88.08H38.248V83.712H51.784V88.08H56.2V97.2H51.304V88.56H38.728V109.776H51.304V101.04H56.2V110.256H51.784V114.576H38.248ZM62.005 114.576V83.712H66.853V96.768H70.693V92.4H79.909V96.768H84.325V114.576H79.429V97.2H71.173V101.52H66.853V114.576H62.005ZM93.5605 114.576V110.256H89.1925V96.768H93.5605V92.4H107.097V96.768H111.513V109.776H115.881V114.576H111.033V110.256H107.097V114.576H93.5605ZM94.0405 109.776H106.617V97.2H94.0405V109.776ZM125.068 114.576V110.256H120.748V97.2H116.38V92.4H120.748V83.712H125.548V92.4H138.7V97.2H125.548V109.776H138.22V105.408H143.068V110.256H138.7V114.576H125.068ZM162.842 114.576V110.256H158.474V88.08H162.842V83.712H176.378V88.08H180.794V97.2H176.378V101.04H180.794V110.256H176.378V114.576H162.842ZM163.322 109.776H175.898V101.52H167.162V96.768H175.898V88.56H163.322V109.776ZM190.967 114.576V110.256H186.599V92.4H191.447V109.776H204.023V92.4H208.919V110.256H204.503V114.576H190.967ZM219.092 114.576V110.256H214.724V83.712H219.572V92.4H232.628V96.768H237.044V110.256H232.628V114.576H219.092ZM219.572 109.776H232.148V97.2H219.572V109.776ZM247.217 114.576V110.256H242.849V83.712H247.697V92.4H260.753V96.768H265.169V110.256H260.753V114.576H247.217ZM247.697 109.776H260.273V97.2H247.697V109.776ZM270.036 114.576V83.712H274.884V114.576H270.036ZM284.107 114.576V110.256H279.739V96.768H284.107V92.4H297.643V96.768H302.059V101.52H297.163V97.2H284.587V101.04H293.323V105.888H284.587V109.776H297.163V105.36H302.059V110.208H297.643V114.576H284.107Z" fill="currentColor" fill-opacity="0.18"/>
<path d="M398.326 199.576V194.776H402.694V173.56H398.326V168.712H411.91V173.56H407.494V194.776H411.91V199.576H398.326ZM416.279 199.576V177.4H434.183V181.768H438.599V199.576H433.703V182.2H421.127V199.576H416.279ZM443.467 199.576V173.08H447.835V168.712H461.371V173.08H465.787V177.88H460.891V173.56H448.315V181.768H457.051V186.52H448.315V199.576H443.467ZM471.178 199.576V195.256H466.81V181.768H471.178V177.4H484.714V181.768H489.13V195.256H484.714V199.576H471.178ZM471.658 194.776H484.234V182.2H471.658V194.776ZM508.913 199.576V195.256H504.545V181.768H508.913V177.4H522.449V181.768H526.865V194.776H531.233V199.576H526.385V195.256H522.449V199.576H508.913ZM509.393 194.776H521.969V182.2H509.393V194.776ZM539.007 199.576V195.256H534.639V168.712H539.487V177.4H552.543V181.768H556.959V195.256H552.543V199.576H539.007ZM539.487 194.776H552.063V182.2H539.487V194.776ZM566.194 199.576V195.256H561.826V181.768H566.194V177.4H579.73V181.768H584.146V195.256H579.73V199.576H566.194ZM566.674 194.776H579.25V182.2H566.674V194.776ZM594.319 199.576V195.256H589.951V177.4H594.799V194.776H607.375V177.4H612.271V195.256H607.855V199.576H594.319ZM624.842 199.576V195.256H620.522V182.2H616.154V177.4H620.522V168.712H625.322V177.4H638.474V182.2H625.322V194.776H637.994V190.408H642.842V195.256H638.474V199.576H624.842ZM658.248 199.576V177.4H663.096V199.576H658.248ZM658.248 173.56V168.712H663.096V173.56H658.248ZM676.123 199.576V195.256H671.803V182.2H667.435V177.4H671.803V168.712H676.603V177.4H689.755V182.2H676.603V194.776H689.275V190.408H694.123V195.256H689.755V199.576H676.123ZM702.835 199.576V195.256H698.467V181.768H702.835V177.4H716.371V181.768H720.787V186.52H715.891V182.2H703.315V186.04H712.051V190.888H703.315V194.776H715.891V190.36H720.787V195.208H716.371V199.576H702.835ZM726.592 199.576V177.4H740.176V181.768H744.016V177.4H753.28V181.768H757.6V199.576H752.8V182.2H744.496V199.576H739.696V182.2H731.44V199.576H726.592ZM772.998 199.576V177.4H777.846V199.576H772.998ZM772.998 173.56V168.712H777.846V173.56H772.998ZM782.701 199.576V177.4H800.605V181.768H805.021V199.576H800.125V182.2H787.549V199.576H782.701ZM824.803 199.576V195.256H820.435V181.768H824.803V177.4H838.339V181.768H842.755V186.52H837.859V182.2H825.283V194.776H837.859V190.408H842.755V195.256H838.339V199.576H824.803ZM847.623 199.576V168.712H852.471V181.768H856.311V177.4H865.527V181.768H869.943V199.576H865.047V182.2H856.791V186.52H852.471V199.576H847.623ZM879.178 199.576V195.256H874.81V181.768H879.178V177.4H892.714V181.768H897.13V194.776H901.498V199.576H896.65V195.256H892.714V199.576H879.178ZM879.658 194.776H892.234V182.2H879.658V194.776ZM910.686 199.576V195.256H906.366V182.2H901.998V177.4H906.366V168.712H911.166V177.4H924.318V182.2H911.166V194.776H923.838V190.408H928.686V195.256H924.318V199.576H910.686Z" fill="currentColor" fill-opacity="0.18"/>
<path d="M84.1484 316.576V311.776H88.5164V290.56H84.1484V285.712H97.7324V290.56H93.3164V311.776H97.7324V316.576H84.1484ZM112.243 316.576V312.256H107.923V299.2H103.555V294.4H107.923V285.712H112.723V294.4H125.875V299.2H112.723V311.776H125.395V307.408H130.243V312.256H125.875V316.576H112.243ZM138.954 316.576V312.256H134.586V298.768H138.954V294.4H152.49V298.768H156.906V303.52H152.01V299.2H139.434V303.04H148.17V307.888H139.434V311.776H152.01V307.36H156.906V312.208H152.49V316.576H138.954ZM162.711 316.576V294.4H176.295V298.768H180.135V294.4H189.399V298.768H193.719V316.576H188.919V299.2H180.615V316.576H175.815V299.2H167.559V316.576H162.711ZM209.117 316.576V311.776H226.541V307.888H213.485V303.52H209.117V298.768H213.485V294.4H231.437V299.2H213.965V303.04H227.021V307.408H231.437V312.256H227.021V316.576H209.117ZM237.242 316.576V294.4H242.09V316.576H237.242ZM237.242 290.56V285.712H242.09V290.56H237.242ZM251.313 325.264V320.944H246.945V316.144H251.793V320.464H264.417V312.256H251.313V307.888H246.945V298.768H251.313V294.4H264.897V298.768H269.265V320.944H264.897V325.264H251.313ZM251.793 307.408H264.417V299.2H251.793V307.408ZM275.07 316.576V294.4H292.974V298.768H297.39V316.576H292.494V299.2H279.918V316.576H275.07ZM303.195 316.576V294.4H308.043V316.576H303.195ZM303.195 290.56V285.712H308.043V290.56H303.195ZM312.898 316.576V294.4H330.802V298.768H335.218V316.576H330.322V299.2H317.746V316.576H312.898ZM344.454 325.264V320.944H340.086V316.144H344.934V320.464H357.558V312.256H344.454V307.888H340.086V298.768H344.454V294.4H358.038V298.768H362.406V320.944H358.038V325.264H344.454ZM344.934 307.408H357.558V299.2H344.934V307.408Z" fill="currentColor" fill-opacity="0.18"/>
<path d="M751.172 364.576V338.08H755.54V333.712H760.34V338.08H764.756V346.768H768.596V338.08H773.012V333.712H777.86V338.08H782.18V364.576H777.38V338.56H773.492V347.2H769.076V360.256H764.276V347.2H759.86V338.56H756.02V364.576H751.172ZM792.337 364.576V360.256H787.969V346.768H792.337V342.4H805.873V346.768H810.289V359.776H814.657V364.576H809.809V360.256H805.873V364.576H792.337ZM792.817 359.776H805.393V347.2H792.817V359.776ZM820.453 364.576V346.768H824.821V342.4H838.357V346.768H842.773V351.52H837.877V347.2H825.301V364.576H820.453ZM847.64 364.576V333.712H852.488V351.04H856.328V346.768H865.064V342.4H869.96V347.2H865.544V351.52H856.808V355.408H865.544V359.776H869.96V364.576H865.064V360.256H856.328V355.888H852.488V364.576H847.64ZM874.828 364.576V359.776H892.252V355.888H879.196V351.52H874.828V346.768H879.196V342.4H897.148V347.2H879.676V351.04H892.732V355.408H897.148V360.256H892.732V364.576H874.828Z" fill="currentColor" fill-opacity="0.18"/>
</g>
<defs>
<clipPath id="clip0_14_78">
<rect width="990" height="503" fill="currentColor"/>
</clipPath>
</defs>
</svg>
