<svg width="990" height="503" viewBox="0 0 990 503" fill="none" xmlns="http://www.w3.org/2000/svg">
<g clip-path="url(#clip0_15_292)">
<rect y="43" width="990" height="1" fill="currentColor" fill-opacity="0.07"/>
<rect width="990" height="1" fill="currentColor" fill-opacity="0.07"/>
<rect y="129" width="990" height="1" fill="currentColor" fill-opacity="0.07"/>
<rect y="387" width="990" height="1" fill="currentColor" fill-opacity="0.07"/>
<rect y="344" width="990" height="1" fill="currentColor" fill-opacity="0.07"/>
<rect y="86" width="990" height="1" fill="currentColor" fill-opacity="0.07"/>
<rect y="215" width="990" height="1" fill="currentColor" fill-opacity="0.07"/>
<rect y="172" width="990" height="1" fill="currentColor" fill-opacity="0.07"/>
<rect y="301" width="990" height="1" fill="currentColor" fill-opacity="0.07"/>
<rect y="258" width="990" height="1" fill="currentColor" fill-opacity="0.07"/>
<rect width="1" height="435" fill="currentColor" fill-opacity="0.07"/>
<rect x="43" width="1" height="435" fill="currentColor" fill-opacity="0.07"/>
<rect x="86" width="1" height="435" fill="currentColor" fill-opacity="0.07"/>
<rect x="129" width="1" height="435" fill="currentColor" fill-opacity="0.07"/>
<rect x="172" width="1" height="435" fill="currentColor" fill-opacity="0.07"/>
<rect x="215" width="1" height="435" fill="currentColor" fill-opacity="0.07"/>
<rect x="258" width="1" height="435" fill="currentColor" fill-opacity="0.07"/>
<rect x="301" width="1" height="435" fill="currentColor" fill-opacity="0.07"/>
<rect x="344" width="1" height="435" fill="currentColor" fill-opacity="0.07"/>
<rect x="387" width="1" height="435" fill="currentColor" fill-opacity="0.07"/>
<rect x="430" width="1" height="435" fill="currentColor" fill-opacity="0.07"/>
<rect x="473" width="1" height="435" fill="currentColor" fill-opacity="0.07"/>
<rect x="516" width="1" height="435" fill="currentColor" fill-opacity="0.07"/>
<rect x="559" width="1" height="435" fill="currentColor" fill-opacity="0.07"/>
<rect x="602" width="1" height="435" fill="currentColor" fill-opacity="0.07"/>
<rect x="645" width="1" height="435" fill="currentColor" fill-opacity="0.07"/>
<rect x="688" width="1" height="435" fill="currentColor" fill-opacity="0.07"/>
<rect x="731" width="1" height="435" fill="currentColor" fill-opacity="0.07"/>
<rect x="774" width="1" height="435" fill="currentColor" fill-opacity="0.07"/>
<rect x="817" width="1" height="435" fill="currentColor" fill-opacity="0.07"/>
<rect x="860" width="1" height="435" fill="currentColor" fill-opacity="0.07"/>
<rect x="903" width="1" height="435" fill="currentColor" fill-opacity="0.07"/>
<rect x="946" width="1" height="435" fill="currentColor" fill-opacity="0.07"/>
<rect x="989" width="1" height="435" fill="currentColor" fill-opacity="0.07"/>
<rect x="3" y="431" width="990" height="1" fill="currentColor" fill-opacity="0.07"/>
<path d="M0 435H990V503H0V435Z" fill="currentColor" fill-opacity="0.12"/>
<path d="M14.88 485.576L30.144 454.712H34.416L19.152 485.576H14.88ZM40.2863 485.576V459.08H44.6543V454.712H58.1903V459.08H62.6063V485.576H57.7103V459.56H45.1343V467.768H53.8703V472.52H45.1343V485.576H40.2863ZM72.7793 485.576V481.256H68.4113V467.768H72.7793V463.4H86.3153V467.768H90.7313V472.52H85.8353V468.2H73.2593V472.04H81.9953V476.888H73.2593V480.776H85.8353V476.36H90.7313V481.208H86.3153V485.576H72.7793ZM100.904 485.576V481.256H96.5363V467.768H100.904V463.4H114.44V467.768H118.856V472.52H113.96V468.2H101.384V480.776H113.96V476.408H118.856V481.256H114.44V485.576H100.904ZM130.959 485.576V481.256H126.639V468.2H122.271V463.4H126.639V454.712H131.439V463.4H144.591V468.2H131.439V480.776H144.111V476.408H148.959V481.256H144.591V485.576H130.959ZM157.67 485.576V481.256H153.302V467.768H157.67V463.4H171.206V467.768H175.622V481.256H171.206V485.576H157.67ZM158.15 480.776H170.726V468.2H158.15V480.776ZM181.427 485.576V463.4H199.331V467.768H203.747V485.576H198.851V468.2H186.275V485.576H181.427ZM212.467 485.576V481.256H208.099V467.768H212.467V463.4H226.003V467.768H230.419V472.52H225.523V468.2H212.947V472.04H221.683V476.888H212.947V480.776H225.523V476.36H230.419V481.208H226.003V485.576H212.467ZM234.448 475.4V470.552H247.984V475.4H234.448ZM256.576 485.576V481.256H252.208V467.768H256.576V463.4H270.112V467.768H274.528V472.52H269.632V468.2H257.056V480.776H269.632V476.408H274.528V481.256H270.112V485.576H256.576ZM279.396 485.576V454.712H284.244V467.768H288.084V463.4H297.3V467.768H301.716V485.576H296.82V468.2H288.564V472.52H284.244V485.576H279.396ZM310.951 485.576V481.256H306.583V467.768H310.951V463.4H324.487V467.768H328.903V480.776H333.271V485.576H328.423V481.256H324.487V485.576H310.951ZM311.431 480.776H324.007V468.2H311.431V480.776ZM342.459 485.576V481.256H338.139V468.2H333.771V463.4H338.139V454.712H342.939V463.4H356.091V468.2H342.939V480.776H355.611V476.408H360.459V481.256H356.091V485.576H342.459ZM366.255 485V480.152H381.711V485H366.255Z" fill="currentColor" fill-opacity="0.18"/>
<path d="M38.248 114.576V110.256H33.88V88.08H38.248V83.712H51.784V88.08H56.2V110.256H51.784V114.576H38.248ZM38.728 109.776H51.304V88.56H38.728V109.776ZM66.373 114.576V110.256H62.005V88.08H66.373V83.712H79.909V88.08H84.325V92.88H79.429V88.56H66.853V96.768H79.909V101.04H84.325V110.256H79.909V114.576H66.373ZM66.853 109.776H79.429V101.52H66.853V109.776ZM90.13 114.576V109.728H94.45V92.448H116.77V114.576H111.922V97.248H99.298V114.576H90.13ZM126.936 114.576V110.256H122.568V99.312H139.992V97.2H122.568V92.4H140.472V96.768H144.888V109.776H149.256V114.576H144.408V110.256H140.472V114.576H126.936ZM127.416 109.776H139.992V104.16H127.416V109.776ZM172.524 114.624V110.256H159.42V105.888H155.052V92.4H159.9V105.408H172.524V92.4H177.372V114.624H172.524ZM183.177 114.576V92.4H188.025V101.04H191.865V96.768H200.601V92.4H205.497V97.2H201.081V101.52H192.345V105.408H201.081V109.776H205.497V114.576H200.601V110.256H191.865V105.888H188.025V114.576H183.177ZM215.67 114.576V110.256H211.302V96.768H215.67V92.4H229.206V96.768H233.622V110.256H229.206V114.576H215.67ZM216.15 109.776H228.726V97.2H216.15V109.776ZM266.508 114.624V110.256H253.404V105.888H249.036V92.4H253.884V105.408H266.508V92.4H271.356V114.624H266.508ZM281.529 114.576V110.256H277.161V99.312H294.585V97.2H277.161V92.4H295.065V96.768H299.481V109.776H303.849V114.576H299.001V110.256H295.065V114.576H281.529ZM282.009 109.776H294.585V104.16H282.009V109.776ZM318.334 114.576V97.152H314.494V101.472H309.646V96.72H314.014V92.352H327.55V96.72H331.966V101.472H327.07V97.152H323.23V114.576H318.334ZM342.139 114.576V110.256H337.771V99.312H355.195V97.2H337.771V92.4H355.675V96.768H360.091V109.776H364.459V114.576H359.611V110.256H355.675V114.576H342.139ZM342.619 109.776H355.195V104.16H342.619V109.776Z" fill="currentColor" fill-opacity="0.18"/>
<path d="M407.689 199.576V168.712H412.537V190.408H416.377V177.4H420.793V173.08H425.113V168.712H430.009V199.576H425.113V177.88H421.273V190.888H416.857V195.256H412.537V199.576H407.689ZM435.814 199.576V177.352H440.662V186.568H453.238V177.352H458.134V199.576H453.238V191.368H440.662V199.576H435.814ZM469.843 199.576V194.056H466.387V190.216H462.499V178.264H466.387V174.376H469.843V168.712H474.691V174.376H478.435V178.264H482.323V190.216H478.435V194.056H474.691V199.576H469.843ZM466.867 189.736H469.843V178.696H466.867V189.736ZM474.691 189.736H477.955V178.696H474.691V189.736ZM492.494 199.576V195.256H488.126V181.768H492.494V177.4H506.03V181.768H510.446V195.256H506.03V199.576H492.494ZM492.974 194.776H505.55V182.2H492.974V194.776ZM516.251 208.024V181.768H520.619V177.4H534.155V181.768H538.571V195.256H534.155V199.576H521.099V208.024H516.251ZM521.099 194.776H533.675V182.2H521.099V194.776ZM544.376 199.576V181.768H548.744V177.4H553.544V181.768H557.96V190.408H561.8V181.768H566.216V177.4H571.064V181.768H575.384V199.576H570.584V182.2H566.696V190.888H562.28V195.256H557.48V190.888H553.064V182.2H549.224V199.576H544.376ZM585.541 199.576V195.256H581.173V184.312H598.597V182.2H581.173V177.4H599.077V181.768H603.493V194.776H607.861V199.576H603.013V195.256H599.077V199.576H585.541ZM586.021 194.776H598.597V189.16H586.021V194.776ZM633.242 203.896V201.208H635.45V199.576H613.658V177.4H618.506V194.728H631.082V177.4H635.978V199.096H638.042V201.688H635.93V203.896H633.242ZM642.392 199.576V177.4H647.24V190.408H651.08V186.04H655.496V181.768H659.816V177.4H664.712V199.576H659.816V186.52H655.976V190.888H651.56V195.256H647.24V199.576H642.392ZM671.224 199.576V194.776H675.592V190.84H673.432V186.472H669.064V181.768H673.432V177.4H686.968V181.768H691.384V199.576H686.488V190.84H680.44V195.256H676.072V199.576H671.224ZM673.912 185.992H686.488V182.2H673.912V185.992ZM711.166 199.576V195.256H706.798V181.768H711.166V177.4H724.702V181.768H729.118V195.256H724.702V199.576H711.166ZM711.646 194.776H724.222V182.2H711.646V194.776ZM744.533 199.576V177.4H766.853V199.576H761.957V182.2H749.381V199.576H744.533ZM772.658 208.024V181.768H777.026V177.4H790.562V181.768H794.978V195.256H790.562V199.576H777.506V208.024H772.658ZM777.506 194.776H790.082V182.2H777.506V194.776ZM805.151 199.576V195.256H800.783V181.768H805.151V177.4H818.687V181.768H823.103V186.52H818.207V182.2H805.631V186.04H814.367V190.888H805.631V194.776H818.207V190.36H823.103V195.208H818.687V199.576H805.151ZM828.908 199.576V185.992H833.228V177.4H855.548V199.576H850.7V195.208H833.756V199.576H828.908ZM838.076 190.36H850.7V182.2H838.076V190.36ZM861.345 199.576V181.768H865.713V177.4H870.513V181.768H874.929V190.408H878.769V181.768H883.185V177.4H888.033V181.768H892.353V199.576H887.553V182.2H883.665V190.888H879.249V195.256H874.449V190.888H870.033V182.2H866.193V199.576H861.345ZM902.51 199.576V195.256H898.142V181.768H902.51V177.4H916.046V181.768H920.462V186.52H915.566V182.2H902.99V186.04H911.726V190.888H902.99V194.776H915.566V190.36H920.462V195.208H916.046V199.576H902.51ZM934.955 199.576V182.152H931.115V186.472H926.267V181.72H930.635V177.352H944.171V181.72H948.587V186.472H943.691V182.152H939.851V199.576H934.955ZM958.76 199.576V195.256H954.392V181.768H958.76V177.4H972.296V181.768H976.712V186.52H971.816V182.2H959.24V186.04H967.976V190.888H959.24V194.776H971.816V190.36H976.712V195.208H972.296V199.576H958.76ZM622.174 257.576V253.256H617.806V239.768H622.174V235.4H635.71V239.768H640.126V244.616H635.71V248.456H640.126V253.256H635.71V257.576H622.174ZM622.654 252.776H635.23V248.936H626.494V244.136H635.23V240.2H622.654V252.776ZM673.013 257.624V253.256H659.909V248.888H655.541V235.4H660.389V248.408H673.013V235.4H677.861V257.624H673.013ZM688.034 257.576V253.256H683.666V242.312H701.09V240.2H683.666V235.4H701.57V239.768H705.986V252.776H710.354V257.576H705.506V253.256H701.57V257.576H688.034ZM688.514 252.776H701.09V247.16H688.514V252.776ZM724.838 257.576V240.152H720.998V244.472H716.15V239.72H720.518V235.352H734.054V239.72H738.47V244.472H733.574V240.152H729.734V257.576H724.838ZM748.643 257.576V253.256H744.275V239.768H748.643V235.4H762.179V239.768H766.595V244.52H761.699V240.2H749.123V244.04H757.859V248.888H749.123V252.776H761.699V248.36H766.595V253.208H762.179V257.576H748.643Z" fill="currentColor" fill-opacity="0.18"/>
<path d="M139.63 316V281.728H165.502V316H161.23V285.52H143.95V316H139.63ZM177.426 316.576V312.256H173.058V298.768H177.426V294.4H190.962V298.768H195.378V312.256H190.962V316.576H177.426ZM177.906 311.776H190.482V299.2H177.906V311.776ZM201.183 316.576V302.992H205.503V294.4H227.823V316.576H222.975V312.208H206.031V316.576H201.183ZM210.351 307.36H222.975V299.2H210.351V307.36ZM233.62 316.576V294.4H255.94V316.576H251.044V299.2H238.468V316.576H233.62ZM261.745 316.576V294.4H266.593V307.408H270.433V303.04H274.849V298.768H279.169V294.4H284.065V316.576H279.169V303.52H275.329V307.888H270.913V312.256H266.593V316.576H261.745ZM292.785 316.576V312.256H288.417V298.768H292.785V294.4H306.321V298.768H310.737V303.52H305.841V299.2H293.265V311.776H305.841V307.408H310.737V312.256H306.321V316.576H292.785ZM318.03 316.576V312.256H313.662V285.712H318.51V294.4H331.566V298.768H335.982V312.256H331.566V316.576H318.03ZM318.51 311.776H331.086V299.2H318.51V311.776ZM108.183 374.576V352.4H130.503V374.576H125.607V357.2H113.031V374.576H108.183ZM136.308 383.024V356.768H140.676V352.4H154.212V356.768H158.628V370.256H154.212V374.576H141.156V383.024H136.308ZM141.156 369.776H153.732V357.2H141.156V369.776ZM168.801 374.576V370.256H164.433V356.768H168.801V352.4H182.337V356.768H186.753V361.52H181.857V357.2H169.281V361.04H178.017V365.888H169.281V369.776H181.857V365.36H186.753V370.208H182.337V374.576H168.801ZM192.558 374.576V360.992H196.878V352.4H219.198V374.576H214.35V370.208H197.406V374.576H192.558ZM201.726 365.36H214.35V357.2H201.726V365.36ZM224.995 374.576V356.768H229.363V352.4H234.163V356.768H238.579V365.408H242.419V356.768H246.835V352.4H251.683V356.768H256.003V374.576H251.203V357.2H247.315V365.888H242.899V370.256H238.099V365.888H233.683V357.2H229.843V374.576H224.995ZM266.16 374.576V370.256H261.792V356.768H266.16V352.4H279.696V356.768H284.112V361.52H279.216V357.2H266.64V361.04H275.376V365.888H266.64V369.776H279.216V365.36H284.112V370.208H279.696V374.576H266.16ZM298.605 374.576V357.152H294.765V361.472H289.917V356.72H294.285V352.352H307.821V356.72H312.237V361.472H307.341V357.152H303.501V374.576H298.605ZM322.41 374.576V370.256H318.042V356.768H322.41V352.4H335.946V356.768H340.362V370.256H335.946V374.576H322.41ZM322.89 369.776H335.466V357.2H322.89V369.776ZM350.535 374.576V370.256H346.167V356.768H350.535V352.4H364.071V356.768H368.487V361.616H364.071V365.456H368.487V370.256H364.071V374.576H350.535ZM351.015 369.776H363.591V365.936H354.855V361.136H363.591V357.2H351.015V369.776Z" fill="currentColor" fill-opacity="0.18"/>
<path d="M751.172 364.576V338.08H755.54V333.712H760.34V338.08H764.756V346.768H768.596V338.08H773.012V333.712H777.86V338.08H782.18V364.576H777.38V338.56H773.492V347.2H769.076V360.256H764.276V347.2H759.86V338.56H756.02V364.576H751.172ZM792.337 364.576V360.256H787.969V346.768H792.337V342.4H805.873V346.768H810.289V351.52H805.393V347.2H792.817V351.04H801.553V355.888H792.817V359.776H805.393V355.36H810.289V360.208H805.873V364.576H792.337ZM824.782 364.576V347.152H820.942V351.472H816.094V346.72H820.462V342.352H833.998V346.72H838.414V351.472H833.518V347.152H829.678V364.576H824.782ZM844.219 364.576V342.4H849.067V351.04H852.907V346.768H861.643V342.4H866.539V347.2H862.123V351.52H853.387V355.408H862.123V359.776H866.539V364.576H861.643V360.256H852.907V355.888H849.067V364.576H844.219ZM872.344 364.576V342.4H877.192V355.408H881.032V351.04H885.448V346.768H889.768V342.4H894.664V364.576H889.768V351.52H885.928V355.888H881.512V360.256H877.192V364.576H872.344Z" fill="currentColor" fill-opacity="0.18"/>
</g>
<defs>
<clipPath id="clip0_15_292">
<rect width="990" height="503" fill="currentColor"/>
</clipPath>
</defs>
</svg>
