<svg width="990" height="564" viewBox="0 0 990 564" fill="none" xmlns="http://www.w3.org/2000/svg">
<g clip-path="url(#clip0_29_3)">
<path d="M-1 496H989V564H-1V496Z" fill="currentColor" fill-opacity="0.12"/>
<path d="M15 365V347H9V344H24V347H18V365H15ZM39 365V353H42V365H39ZM33 353V350H39V353H33ZM27 365V344H30V353H33V356H30V365H27ZM48 365V362H60V365H48ZM45 362V353H48V356H57V353H60V359H48V362H45ZM48 353V350H57V353H48ZM63 365V344H78V347H66V350H72V353H66V365H63ZM81 362V359H84V362H81ZM84 365V362H93V359H84V356H93V353H96V365H84ZM84 353V350H93V353H84ZM99 365V362H111V365H99ZM111 362V359H114V362H111ZM102 359V356H111V359H102ZM99 356V353H102V356H99ZM102 353V350H114V353H102ZM120 365V362H132V365H120ZM117 362V353H120V356H129V353H132V359H120V362H117ZM120 353V350H129V353H120ZM147 356V353H150V356H147ZM135 365V350H138V353H141V356H138V365H135ZM141 353V350H147V353H141ZM153 365V359H156V365H153ZM153 356V350H156V356H153Z" fill="currentColor" fill-opacity="0.72"/>
<path d="M169 365V344H172V350H181V344H184V365H181V353H172V365H169ZM187 365V344H202V347H190V350H196V353H190V362H202V365H187ZM205 365V344H208V362H220V365H205ZM223 365V344H226V362H238V365H223ZM244 365V362H253V365H244ZM241 362V347H244V362H241ZM253 362V347H256V362H253ZM244 347V344H253V347H244ZM262 365V362H271V365H262ZM259 362V347H262V362H259ZM271 362V347H274V362H271ZM262 347V344H271V347H262ZM280 365V362H289V365H280ZM277 362V347H280V362H277ZM289 362V347H292V362H289ZM280 347V344H289V347H280Z" fill="#93B5FF" fill-opacity="0.32"/>
<path d="M1 333H304V379H1V333Z" fill="currentColor" fill-opacity="0.12"/>
<path d="M8.25128 306V303H23.2513V306H8.25128ZM26.2513 315V312H29.2513V315H26.2513ZM29.2513 312V309H32.2513V312H29.2513ZM32.2513 309V306H35.2513V309H32.2513ZM35.2513 306V303H38.2513V306H35.2513ZM32.2513 303V300H35.2513V303H32.2513ZM29.2513 300V297H32.2513V300H29.2513ZM26.2513 297V294H29.2513V297H26.2513ZM53.2513 315V297H47.2513V294H62.2513V297H56.2513V315H53.2513ZM77.2513 315V303H80.2513V315H77.2513ZM71.2513 303V300H77.2513V303H71.2513ZM65.2513 315V294H68.2513V303H71.2513V306H68.2513V315H65.2513ZM86.2513 315V312H98.2513V315H86.2513ZM83.2513 312V303H86.2513V306H95.2513V303H98.2513V309H86.2513V312H83.2513ZM86.2513 303V300H95.2513V303H86.2513ZM101.251 315V294H116.251V297H104.251V300H110.251V303H104.251V315H101.251ZM119.251 312V309H122.251V312H119.251ZM122.251 315V312H131.251V309H122.251V306H131.251V303H134.251V315H122.251ZM122.251 303V300H131.251V303H122.251ZM137.251 315V312H149.251V315H137.251ZM149.251 312V309H152.251V312H149.251ZM140.251 309V306H149.251V309H140.251ZM137.251 306V303H140.251V306H137.251ZM140.251 303V300H152.251V303H140.251ZM158.251 315V312H170.251V315H158.251ZM155.251 312V303H158.251V306H167.251V303H170.251V309H158.251V312H155.251ZM158.251 303V300H167.251V303H158.251ZM185.251 306V303H188.251V306H185.251ZM173.251 315V300H176.251V303H179.251V306H176.251V315H173.251ZM179.251 303V300H185.251V303H179.251Z" fill="currentColor" fill-opacity="0.72"/>
<path d="M0 284C0 282.895 0.89543 282 2 282H195C196.105 282 197 282.895 197 284V326C197 327.105 196.105 328 195 328H2C0.89543 328 0 327.105 0 326V284Z" fill="currentColor" fill-opacity="0.12"/>
<path d="M0 384H727V430H0V384Z" fill="currentColor" fill-opacity="0.12"/>
<path d="M15 416V398H9V395H24V398H18V416H15ZM39 416V404H42V416H39ZM33 404V401H39V404H33ZM27 416V395H30V404H33V407H30V416H27ZM48 416V413H60V416H48ZM45 413V404H48V407H57V404H60V410H48V413H45ZM48 404V401H57V404H48ZM63 416V395H78V398H66V401H72V404H66V416H63ZM81 413V410H84V413H81ZM84 416V413H93V410H84V407H93V404H96V416H84ZM84 404V401H93V404H84ZM99 416V413H111V416H99ZM111 413V410H114V413H111ZM102 410V407H111V410H102ZM99 407V404H102V407H99ZM102 404V401H114V404H102ZM120 416V413H132V416H120ZM117 413V404H120V407H129V404H132V410H120V413H117ZM120 404V401H129V404H120ZM147 407V404H150V407H147ZM135 416V401H138V404H141V407H138V416H135ZM141 404V401H147V404H141ZM549 416V395H558V398H552V413H558V416H549ZM564 416V413H573V416H564ZM561 413V410H564V413H561ZM573 413V404H576V413H573ZM564 404V401H573V404H564ZM561 401V398H564V401H561ZM564 398V395H576V398H564ZM585 416V413H588V416H585ZM582 413V404H579V401H582V395H585V401H588V404H585V413H582ZM594 416V413H603V416H594ZM591 413V404H594V413H591ZM603 413V404H606V413H603ZM594 404V401H603V404H594ZM621 416V404H624V416H621ZM609 416V401H621V404H612V416H609ZM630 416V413H642V416H630ZM627 413V404H630V407H639V404H642V410H630V413H627ZM630 404V401H639V404H630ZM651 416V398H654V401H663V398H666V416H663V404H654V416H651ZM654 398V395H663V398H654ZM669 419V416H681V419H669ZM669 410V404H672V410H669ZM681 416V413H672V410H681V404H672V401H684V416H681ZM690 416V413H702V416H690ZM687 413V404H690V407H699V404H702V410H690V413H687ZM690 404V401H699V404H690ZM705 416V413H711V398H705V395H714V416H705Z" fill="currentColor" fill-opacity="0.72"/>
<path d="M171 416V404H174V416H171ZM165 404V401H171V404H165ZM159 416V395H162V404H165V407H162V416H159ZM177 413V410H180V413H177ZM180 416V413H189V410H180V407H189V404H192V416H180ZM180 404V401H189V404H180ZM195 416V413H207V416H195ZM207 413V410H210V413H207ZM198 410V407H207V410H198ZM195 407V404H198V407H195ZM198 404V401H210V404H198ZM225 410V404H228V410H225ZM231 416V404H234V416H231ZM219 416V401H225V404H222V416H219ZM228 404V401H231V404H228ZM237 413V410H240V413H237ZM240 416V413H249V410H240V407H249V404H252V416H240ZM240 404V401H249V404H240ZM255 413V404H258V413H255ZM258 404V401H264V404H258ZM258 416V413H267V407H264V404H267V395H270V416H258ZM276 416V413H288V416H276ZM273 413V404H276V407H285V404H288V410H276V413H273ZM276 404V401H285V404H276ZM303 416V413H306V416H303ZM300 413V404H297V401H300V395H303V401H306V404H303V413H300ZM321 416V404H324V416H321ZM315 404V401H321V404H315ZM309 416V395H312V404H315V407H312V416H309ZM330 416V413H342V416H330ZM327 413V404H330V407H339V404H342V410H330V413H327ZM330 404V401H339V404H330ZM351 413V410H354V413H351ZM354 416V413H363V410H354V407H363V404H366V416H354ZM354 404V401H363V404H354ZM369 413V404H372V413H369ZM372 404V401H378V404H372ZM372 416V413H381V407H378V404H381V395H384V416H372ZM393 416V413H396V416H393ZM390 413V410H393V413H390ZM396 413V410H399V413H396ZM387 410V401H390V410H387ZM399 410V401H402V410H399ZM405 413V410H408V413H405ZM408 416V413H417V410H408V407H417V404H420V416H408ZM408 404V401H417V404H408ZM435 416V404H438V416H435ZM423 416V401H435V404H426V416H423ZM444 416V413H453V416H444ZM453 413V410H456V413H453ZM441 413V404H444V413H441ZM453 407V404H456V407H453ZM444 404V401H453V404H444ZM462 416V413H474V416H462ZM459 413V404H462V407H471V404H474V410H462V413H459ZM462 404V401H471V404H462ZM483 410V404H486V410H483ZM489 416V404H492V416H489ZM477 416V401H483V404H480V416H477ZM486 404V401H489V404H486ZM498 416V413H510V416H498ZM495 413V404H498V407H507V404H510V410H498V413H495ZM498 404V401H507V404H498ZM525 416V404H528V416H525ZM513 416V401H525V404H516V416H513ZM537 416V413H540V416H537ZM534 413V404H531V401H534V395H537V401H540V404H537V413H534Z" fill="currentColor" fill-opacity="0.72"/>
<path d="M171 416V404H174V416H171ZM165 404V401H171V404H165ZM159 416V395H162V404H165V407H162V416H159ZM177 413V410H180V413H177ZM180 416V413H189V410H180V407H189V404H192V416H180ZM180 404V401H189V404H180ZM195 416V413H207V416H195ZM207 413V410H210V413H207ZM198 410V407H207V410H198ZM195 407V404H198V407H195ZM198 404V401H210V404H198ZM225 410V404H228V410H225ZM231 416V404H234V416H231ZM219 416V401H225V404H222V416H219ZM228 404V401H231V404H228ZM237 413V410H240V413H237ZM240 416V413H249V410H240V407H249V404H252V416H240ZM240 404V401H249V404H240ZM255 413V404H258V413H255ZM258 404V401H264V404H258ZM258 416V413H267V407H264V404H267V395H270V416H258ZM276 416V413H288V416H276ZM273 413V404H276V407H285V404H288V410H276V413H273ZM276 404V401H285V404H276ZM303 416V413H306V416H303ZM300 413V404H297V401H300V395H303V401H306V404H303V413H300ZM321 416V404H324V416H321ZM315 404V401H321V404H315ZM309 416V395H312V404H315V407H312V416H309ZM330 416V413H342V416H330ZM327 413V404H330V407H339V404H342V410H330V413H327ZM330 404V401H339V404H330ZM351 413V410H354V413H351ZM354 416V413H363V410H354V407H363V404H366V416H354ZM354 404V401H363V404H354ZM369 413V404H372V413H369ZM372 404V401H378V404H372ZM372 416V413H381V407H378V404H381V395H384V416H372ZM393 416V413H396V416H393ZM390 413V410H393V413H390ZM396 413V410H399V413H396ZM387 410V401H390V410H387ZM399 410V401H402V410H399ZM405 413V410H408V413H405ZM408 416V413H417V410H408V407H417V404H420V416H408ZM408 404V401H417V404H408ZM435 416V404H438V416H435ZM423 416V401H435V404H426V416H423ZM444 416V413H453V416H444ZM453 413V410H456V413H453ZM441 413V404H444V413H441ZM453 407V404H456V407H453ZM444 404V401H453V404H444ZM462 416V413H474V416H462ZM459 413V404H462V407H471V404H474V410H462V413H459ZM462 404V401H471V404H462ZM483 410V404H486V410H483ZM489 416V404H492V416H489ZM477 416V401H483V404H480V416H477ZM486 404V401H489V404H486ZM498 416V413H510V416H498ZM495 413V404H498V407H507V404H510V410H498V413H495ZM498 404V401H507V404H498ZM525 416V404H528V416H525ZM513 416V401H525V404H516V416H513ZM537 416V413H540V416H537ZM534 413V404H531V401H534V395H537V401H540V404H537V413H534Z" fill="#93B5FF" fill-opacity="0.42"/>
<path d="M18 548V511.25H23.25V521.75H39V511.25H44.25V548H39V527H23.25V548H18ZM54.75 548V542.75H75.75V548H54.75ZM49.5 542.75V527H54.75V532.25H70.5V527H75.75V537.5H54.75V542.75H49.5ZM54.75 527V521.75H70.5V527H54.75ZM86.25 548V542.75H91.5V548H86.25ZM81 542.75V511.25H86.25V542.75H81ZM102 548V542.75H107.25V548H102ZM96.75 542.75V511.25H102V542.75H96.75ZM117.75 548V542.75H133.5V548H117.75ZM112.5 542.75V527H117.75V542.75H112.5ZM133.5 542.75V527H138.75V542.75H133.5ZM117.75 527V521.75H133.5V527H117.75ZM175.5 542.75V527H180.75V542.75H175.5ZM165 527V521.75H175.5V527H165ZM154.5 548V511.25H159.75V527H165V532.25H159.75V542.75H175.5V548H154.5ZM207 532.25V527H212.25V532.25H207ZM186 548V521.75H191.25V527H196.5V532.25H191.25V548H186ZM196.5 527V521.75H207V527H196.5ZM222.75 548V542.75H238.5V548H222.75ZM217.5 542.75V527H222.75V542.75H217.5ZM238.5 542.75V527H243.75V542.75H238.5ZM222.75 527V521.75H238.5V527H222.75ZM254.25 548V542.75H270V548H254.25ZM249 542.75V527H254.25V542.75H249ZM270 542.75V527H275.25V542.75H270ZM254.25 527V521.75H270V527H254.25ZM285.75 548V542.75H301.5V548H285.75ZM280.5 542.75V527H285.75V542.75H280.5ZM301.5 542.75V527H306.75V542.75H301.5ZM285.75 527V521.75H301.5V527H285.75ZM312 548V542.75H317.25V548H312ZM312 537.5V511.25H317.25V537.5H312ZM322.5 548V542.75H327.75V548H322.5ZM322.5 537.5V511.25H327.75V537.5H322.5ZM333 553.25V548H359.25V553.25H333Z" fill="currentColor" fill-opacity="0.18"/>
</g>
<defs>
<clipPath id="clip0_29_3">
<rect width="990" height="564" fill="white"/>
</clipPath>
</defs>
</svg>
