<svg width="990" height="564" viewBox="0 0 990 564" fill="none" xmlns="http://www.w3.org/2000/svg">
<g clip-path="url(#clip0_30_94)">
<path d="M0 226H689V430H0V226Z" fill="currentColor" fill-opacity="0.12"/>
<path d="M57 262V244H60V247H69V244H72V262H69V250H60V262H57ZM60 244V241H69V244H60ZM87 262V250H90V262H87ZM75 262V247H87V250H78V262H75ZM102 262V259H111V262H102ZM99 259V250H102V259H99ZM111 259V250H114V259H111ZM102 250V247H111V250H102ZM120 262V250H117V247H120V244H123V247H129V250H123V262H120ZM123 244V241H129V244H123ZM135 262V250H132V247H135V244H138V247H144V250H138V262H135ZM138 244V241H144V244H138ZM150 262V259H162V262H150ZM147 259V250H150V253H159V250H162V256H150V259H147ZM150 250V247H159V250H150ZM177 253V250H180V253H177ZM165 262V247H168V250H171V253H168V262H165ZM171 250V247H177V250H171ZM195 262V259H198V262H195ZM192 259V250H189V247H192V241H195V247H198V250H195V259H192ZM204 262V259H213V262H204ZM201 259V250H204V259H201ZM213 259V250H216V259H213ZM204 250V247H213V250H204ZM237 256V250H240V256H237ZM225 265V247H228V250H231V253H228V256H237V259H228V265H225ZM231 250V247H237V250H231ZM246 262V259H249V262H246ZM243 259V241H246V259H243ZM252 259V256H255V259H252ZM255 262V259H264V256H255V253H264V250H267V262H255ZM255 250V247H264V250H255ZM273 265V262H282V265H273ZM270 256V247H273V256H270ZM282 262V259H273V256H282V247H285V262H282ZM294 259V247H297V259H294ZM297 262V259H300V253H303V259H306V247H309V262H297ZM312 259V256H315V259H312ZM315 262V259H324V256H315V253H324V250H327V262H315ZM315 250V247H324V250H315ZM330 262V259H342V262H330ZM342 259V256H345V259H342ZM333 256V253H342V256H333ZM330 253V250H333V253H330ZM333 250V247H345V250H333ZM354 262V259H366V262H354ZM366 259V256H369V259H366ZM357 256V253H366V256H357ZM354 253V250H357V253H354ZM357 250V247H369V250H357ZM375 262V259H387V262H375ZM372 259V250H375V253H384V250H387V256H375V259H372ZM375 250V247H384V250H375ZM402 262V250H405V262H402ZM390 262V247H402V250H393V262H390ZM414 262V259H417V262H414ZM411 259V250H408V247H411V241H414V247H417V250H414V259H411ZM432 262V259H435V262H432ZM429 259V250H426V247H429V241H432V247H435V250H432V259H429ZM441 262V259H450V262H441ZM438 259V250H441V259H438ZM450 259V250H453V259H450ZM441 250V247H450V250H441Z" fill="currentColor" fill-opacity="0.72"/>
<path d="M57 262V244H60V247H69V244H72V262H69V250H60V262H57ZM60 244V241H69V244H60ZM87 262V250H90V262H87ZM75 262V247H87V250H78V262H75ZM102 262V259H111V262H102ZM99 259V250H102V259H99ZM111 259V250H114V259H111ZM102 250V247H111V250H102ZM120 262V250H117V247H120V244H123V247H129V250H123V262H120ZM123 244V241H129V244H123ZM135 262V250H132V247H135V244H138V247H144V250H138V262H135ZM138 244V241H144V244H138ZM150 262V259H162V262H150ZM147 259V250H150V253H159V250H162V256H150V259H147ZM150 250V247H159V250H150ZM177 253V250H180V253H177ZM165 262V247H168V250H171V253H168V262H165ZM171 250V247H177V250H171ZM195 262V259H198V262H195ZM192 259V250H189V247H192V241H195V247H198V250H195V259H192ZM204 262V259H213V262H204ZM201 259V250H204V259H201ZM213 259V250H216V259H213ZM204 250V247H213V250H204ZM237 256V250H240V256H237ZM225 265V247H228V250H231V253H228V256H237V259H228V265H225ZM231 250V247H237V250H231ZM246 262V259H249V262H246ZM243 259V241H246V259H243ZM252 259V256H255V259H252ZM255 262V259H264V256H255V253H264V250H267V262H255ZM255 250V247H264V250H255ZM273 265V262H282V265H273ZM270 256V247H273V256H270ZM282 262V259H273V256H282V247H285V262H282ZM294 259V247H297V259H294ZM297 262V259H300V253H303V259H306V247H309V262H297ZM312 259V256H315V259H312ZM315 262V259H324V256H315V253H324V250H327V262H315ZM315 250V247H324V250H315ZM330 262V259H342V262H330ZM342 259V256H345V259H342ZM333 256V253H342V256H333ZM330 253V250H333V253H330ZM333 250V247H345V250H333ZM354 262V259H366V262H354ZM366 259V256H369V259H366ZM357 256V253H366V256H357ZM354 253V250H357V253H354ZM357 250V247H369V250H357ZM375 262V259H387V262H375ZM372 259V250H375V253H384V250H387V256H375V259H372ZM375 250V247H384V250H375ZM402 262V250H405V262H402ZM390 262V247H402V250H393V262H390ZM414 262V259H417V262H414ZM411 259V250H408V247H411V241H414V247H417V250H414V259H411ZM432 262V259H435V262H432ZM429 259V250H426V247H429V241H432V247H435V250H432V259H429ZM441 262V259H450V262H441ZM438 259V250H441V259H438ZM450 259V250H453V259H450ZM441 250V247H450V250H441Z" fill="black" fill-opacity="0.38"/>
<path d="M468 262V244H462V241H477V244H471V262H468ZM492 262V250H495V262H492ZM486 250V247H492V250H486ZM480 262V241H483V250H486V253H483V262H480ZM501 262V259H513V262H501ZM498 259V250H501V253H510V250H513V256H501V259H498ZM501 250V247H510V250H501ZM516 262V241H531V244H519V247H525V250H519V262H516ZM534 259V256H537V259H534ZM537 262V259H546V256H537V253H546V250H549V262H537ZM537 250V247H546V250H537ZM552 262V259H564V262H552ZM564 259V256H567V259H564ZM555 256V253H564V256H555ZM552 253V250H555V253H552ZM555 250V247H567V250H555ZM573 262V259H585V262H573ZM570 259V250H573V253H582V250H585V256H573V259H570ZM573 250V247H582V250H573ZM600 253V250H603V253H600ZM588 262V247H591V250H594V253H591V262H588ZM594 250V247H600V250H594Z" fill="currentColor" fill-opacity="0.72"/>
<rect x="11" y="239" width="28" height="28" stroke="currentColor" fill-opacity="0" fill="currentColor" stroke-opacity="0.58" stroke-width="4"/>
<rect x="17" y="304" width="28" height="28" stroke="currentColor" fill-opacity="0" fill="currentColor" stroke-opacity="0.58" stroke-width="4"/>
<rect x="9" y="306" width="4" height="24" fill="currentColor" fill-opacity="0.58"/>
<rect x="121" y="306" width="4" height="24" fill="currentColor" fill-opacity="0.58"/>
<rect x="17" y="340" width="28" height="28" stroke="currentColor" fill-opacity="0" fill="currentColor" stroke-opacity="0.58" stroke-width="4"/>
<rect x="53" y="340" width="28" height="28" stroke="currentColor" fill-opacity="0" fill="currentColor" stroke-opacity="0.58" stroke-width="4"/>
<rect x="53" y="304" width="28" height="28" stroke="currentColor" fill-opacity="0" fill="currentColor" stroke-opacity="0.58" stroke-width="4"/>
<rect x="53" y="376" width="28" height="28" stroke="currentColor" fill-opacity="0" fill="currentColor" stroke-opacity="0.58" stroke-width="4"/>
<rect x="89" y="376" width="28" height="28" stroke="currentColor" fill-opacity="0" fill="currentColor" stroke-opacity="0.58" stroke-width="4"/>
<rect x="89" y="340" width="28" height="28" stroke="currentColor" fill-opacity="0" fill="currentColor" stroke-opacity="0.58" stroke-width="4"/>
<rect x="89" y="304" width="28" height="28" stroke="currentColor" fill-opacity="0" fill="currentColor" stroke-opacity="0.58" stroke-width="4"/>
<rect x="9" y="342" width="4" height="24" fill="currentColor" fill-opacity="0.58"/>
<rect x="121" y="342" width="4" height="24" fill="currentColor" fill-opacity="0.58"/>
<rect x="17" y="376" width="28" height="28" stroke="currentColor" fill-opacity="0" fill="currentColor" stroke-opacity="0.58" stroke-width="4"/>
<rect x="9" y="378" width="4" height="24" fill="currentColor" fill-opacity="0.58"/>
<rect x="121" y="378" width="4" height="24" fill="currentColor" fill-opacity="0.58"/>
<path d="M189 390V387H204V390H189ZM207 399V396H210V399H207ZM210 396V393H213V396H210ZM213 393V390H216V393H213ZM216 390V387H219V390H216ZM213 387V384H216V387H213ZM210 384V381H213V384H210ZM207 381V378H210V381H207Z" fill="currentColor" fill-opacity="0.72"/>
<rect x="143" y="376" width="28" height="28" stroke="currentColor" fill-opacity="0" fill="currentColor" stroke-opacity="0.58" stroke-width="4"/>
<path d="M288 400V397H294V400H288ZM285 397V394H288V397H285ZM282 394V385H285V394H282ZM285 385V382H288V385H285ZM288 382V379H294V382H288ZM300 400V397H309V400H300ZM309 397V394H312V397H309ZM297 397V388H300V397H297ZM309 391V388H312V391H309ZM300 388V385H309V388H300ZM327 391V388H330V391H327ZM315 400V385H318V388H321V391H318V400H315ZM321 388V385H327V388H321ZM336 400V397H348V400H336ZM333 397V388H336V391H345V388H348V394H336V397H333ZM336 388V385H345V388H336ZM351 397V394H354V397H351ZM354 400V397H363V394H354V391H363V388H366V400H354ZM354 388V385H363V388H354ZM375 400V397H378V400H375ZM372 397V388H369V385H372V379H375V385H378V388H375V397H372ZM384 400V397H396V400H384ZM381 397V388H384V391H393V388H396V394H384V397H381ZM384 388V385H393V388H384ZM399 400V397H405V400H399ZM405 397V394H408V397H405ZM408 394V385H411V394H408ZM405 385V382H408V385H405ZM399 382V379H405V382H399Z" fill="currentColor" fill-opacity="0.72"/>
<path d="M245 396V393.5H247.5V396H245ZM255 396V393.5H257.5V396H255ZM247.5 393.5V391H250V393.5H247.5ZM252.5 393.5V391H255V393.5H252.5ZM250 391V388.5H252.5V391H250ZM247.5 388.5V386H250V388.5H247.5ZM252.5 388.5V386H255V388.5H252.5ZM245 386V383.5H247.5V386H245ZM255 386V383.5H257.5V386H255Z" fill="currentColor" fill-opacity="0.72"/>
<rect x="237" y="376" width="28" height="28" stroke="currentColor" fill-opacity="0" fill="currentColor" stroke-opacity="0.58" stroke-width="4"/>
<path d="M144 327V309H138V306H153V309H147V327H144ZM168 327V315H171V327H168ZM162 315V312H168V315H162ZM156 327V306H159V315H162V318H159V327H156ZM177 327V324H189V327H177ZM174 324V315H177V318H186V315H189V321H177V324H174ZM177 315V312H186V315H177ZM192 327V306H207V309H195V312H201V315H195V327H192ZM210 324V321H213V324H210ZM213 327V324H222V321H213V318H222V315H225V327H213ZM213 315V312H222V315H213ZM228 327V324H240V327H228ZM240 324V321H243V324H240ZM231 321V318H240V321H231ZM228 318V315H231V318H228ZM231 315V312H243V315H231ZM249 327V324H261V327H249ZM246 324V315H249V318H258V315H261V321H249V324H246ZM249 315V312H258V315H249ZM276 318V315H279V318H276ZM264 327V312H267V315H270V318H267V327H264ZM270 315V312H276V315H270ZM282 315V312H285V315H282ZM285 312V306H288V312H285ZM291 327V324H303V327H291ZM303 324V321H306V324H303ZM294 321V318H303V321H294ZM291 318V315H294V318H291ZM294 315V312H306V315H294Z" fill="currentColor" fill-opacity="0.72"/>
<path d="M321 321V315H324V321H321ZM327 327V315H330V327H327ZM315 327V312H321V315H318V327H315ZM324 315V312H327V315H324ZM336 327V324H345V327H336ZM333 324V315H336V324H333ZM345 324V315H348V324H345ZM336 315V312H345V315H336ZM357 327V324H360V327H357ZM354 324V321H357V324H354ZM360 324V321H363V324H360ZM351 321V312H354V321H351ZM363 321V312H366V321H363ZM372 327V324H384V327H372ZM369 324V315H372V318H381V315H384V321H372V324H369ZM372 315V312H381V315H372Z" fill="currentColor" fill-opacity="0.72"/>
<path d="M321 321V315H324V321H321ZM327 327V315H330V327H327ZM315 327V312H321V315H318V327H315ZM324 315V312H327V315H324ZM336 327V324H345V327H336ZM333 324V315H336V324H333ZM345 324V315H348V324H345ZM336 315V312H345V315H336ZM357 327V324H360V327H357ZM354 324V321H357V324H354ZM360 324V321H363V324H360ZM351 321V312H354V321H351ZM363 321V312H366V321H363ZM372 327V324H384V327H372ZM369 324V315H372V318H381V315H384V321H372V324H369ZM372 315V312H381V315H372Z" fill="black" fill-opacity="0.38"/>
<path d="M-1 496H989V564H-1V496Z" fill="currentColor" fill-opacity="0.12"/>
<path d="M18 548V542.75H23.25V548H18ZM23.25 542.75V532.25H28.5V542.75H23.25ZM28.5 532.25V527H33.75V532.25H28.5ZM33.75 527V516.5H39V527H33.75ZM39 516.5V511.25H44.25V516.5H39ZM60 548V542.75H65.25V548H60ZM54.75 542.75V527H49.5V521.75H54.75V511.25H60V521.75H65.25V527H60V542.75H54.75ZM70.5 548V521.75H75.75V548H70.5ZM70.5 516.5V511.25H75.75V516.5H70.5ZM86.25 548V542.75H102V548H86.25ZM102 542.75V537.5H107.25V542.75H102ZM81 542.75V527H86.25V542.75H81ZM102 532.25V527H107.25V532.25H102ZM86.25 527V521.75H102V527H86.25ZM123 548V542.75H128.25V548H123ZM117.75 542.75V527H112.5V521.75H117.75V511.25H123V521.75H128.25V527H123V542.75H117.75ZM133.5 542.75V537.5H138.75V542.75H133.5ZM138.75 548V542.75H154.5V537.5H138.75V532.25H154.5V527H159.75V548H138.75ZM138.75 527V521.75H154.5V527H138.75ZM170.25 548V542.75H186V548H170.25ZM186 542.75V537.5H191.25V542.75H186ZM165 542.75V527H170.25V542.75H165ZM186 532.25V527H191.25V532.25H186ZM170.25 527V521.75H186V527H170.25ZM207 548V542.75H212.25V548H207ZM201.75 542.75V527H196.5V521.75H201.75V511.25H207V521.75H212.25V527H207V542.75H201.75ZM222.75 548V542.75H238.5V548H222.75ZM217.5 542.75V527H222.75V542.75H217.5ZM238.5 542.75V527H243.75V542.75H238.5ZM222.75 527V521.75H238.5V527H222.75ZM254.25 548V542.75H275.25V548H254.25ZM249 542.75V527H254.25V532.25H270V527H275.25V537.5H254.25V542.75H249ZM254.25 527V521.75H270V527H254.25Z" fill="currentColor" fill-opacity="0.18"/>
<path d="M301.5 548V516.5H291V511.25H317.25V516.5H306.75V548H301.5ZM343.5 548V527H348.75V548H343.5ZM333 527V521.75H343.5V527H333ZM322.5 548V511.25H327.75V527H333V532.25H327.75V548H322.5ZM359.25 548V542.75H380.25V548H359.25ZM354 542.75V527H359.25V532.25H375V527H380.25V537.5H359.25V542.75H354ZM359.25 527V521.75H375V527H359.25ZM385.5 548V511.25H411.75V516.5H390.75V521.75H401.25V527H390.75V548H385.5ZM417 542.75V537.5H422.25V542.75H417ZM422.25 548V542.75H438V537.5H422.25V532.25H438V527H443.25V548H422.25ZM422.25 527V521.75H438V527H422.25ZM448.5 548V542.75H469.5V548H448.5ZM469.5 542.75V537.5H474.75V542.75H469.5ZM453.75 537.5V532.25H469.5V537.5H453.75ZM448.5 532.25V527H453.75V532.25H448.5ZM453.75 527V521.75H474.75V527H453.75ZM485.25 548V542.75H506.25V548H485.25ZM480 542.75V527H485.25V532.25H501V527H506.25V537.5H485.25V542.75H480ZM485.25 527V521.75H501V527H485.25ZM532.5 532.25V527H537.75V532.25H532.5ZM511.5 548V521.75H516.75V527H522V532.25H516.75V548H511.5ZM522 527V521.75H532.5V527H522Z" fill="currentColor" fill-opacity="0.18"/>
<path d="M301.5 548V516.5H291V511.25H317.25V516.5H306.75V548H301.5ZM343.5 548V527H348.75V548H343.5ZM333 527V521.75H343.5V527H333ZM322.5 548V511.25H327.75V527H333V532.25H327.75V548H322.5ZM359.25 548V542.75H380.25V548H359.25ZM354 542.75V527H359.25V532.25H375V527H380.25V537.5H359.25V542.75H354ZM359.25 527V521.75H375V527H359.25ZM385.5 548V511.25H411.75V516.5H390.75V521.75H401.25V527H390.75V548H385.5ZM417 542.75V537.5H422.25V542.75H417ZM422.25 548V542.75H438V537.5H422.25V532.25H438V527H443.25V548H422.25ZM422.25 527V521.75H438V527H422.25ZM448.5 548V542.75H469.5V548H448.5ZM469.5 542.75V537.5H474.75V542.75H469.5ZM453.75 537.5V532.25H469.5V537.5H453.75ZM448.5 532.25V527H453.75V532.25H448.5ZM453.75 527V521.75H474.75V527H453.75ZM485.25 548V542.75H506.25V548H485.25ZM480 542.75V527H485.25V532.25H501V527H506.25V537.5H485.25V542.75H480ZM485.25 527V521.75H501V527H485.25ZM532.5 532.25V527H537.75V532.25H532.5ZM511.5 548V521.75H516.75V527H522V532.25H516.75V548H511.5ZM522 527V521.75H532.5V527H522Z" fill="currentColor" fill-opacity="0.53"/>
<path d="M543 553.25V548H569.25V553.25H543Z" fill="currentColor" fill-opacity="0.18"/>
<path d="M543 553.25V548H569.25V553.25H543Z" fill="currentColor" fill-opacity="0.53"/>
<path d="M543 553.25V548H569.25V553.25H543Z" fill="black" fill-opacity="0.49"/>
</g>
<defs>
<clipPath id="clip0_30_94">
<rect width="990" height="564" fill="white"/>
</clipPath>
</defs>
</svg>
